<svg width="382" height="347" viewBox="0 0 382 347" fill="none" xmlns="http://www.w3.org/2000/svg">
<g clip-path="url(#clip0_73_537)">
<path d="M273.435 315.863C287.051 315.863 298.088 294.055 298.088 267.152C298.088 240.25 287.051 218.442 273.435 218.442C259.82 218.442 248.782 240.25 248.782 267.152C248.782 294.055 259.82 315.863 273.435 315.863Z" fill="#3F3D56"/>
<path d="M271.158 346.884C281.032 289.517 271.258 232.358 271.158 231.788L269.237 232.103C269.337 232.67 279.055 289.529 269.237 346.575L271.158 346.884Z" fill="#CACACA"/>
<path d="M251.73 256.678L250.811 258.342L273.104 269.889L274.023 268.225L251.73 256.678Z" fill="#CACACA"/>
<path d="M296.633 262.462L274.342 274.016L275.262 275.679L297.552 264.126L296.633 262.462Z" fill="#CACACA"/>
<path d="M332.669 285.333C359.3 285.333 380.888 242.678 380.888 190.06C380.888 137.443 359.3 94.7878 332.669 94.7878C306.039 94.7878 284.451 137.443 284.451 190.06C284.451 242.678 306.039 285.333 332.669 285.333Z" fill="#E6E6E6"/>
<path d="M327.298 345.859C346.585 233.804 327.493 122.157 327.298 121.042L325.377 121.358C325.572 122.469 344.608 233.816 325.377 345.549L327.298 345.859Z" fill="#CACACA"/>
<path d="M289.778 170.369L288.859 172.032L332.462 194.617L333.381 192.954L289.778 170.369Z" fill="#CACACA"/>
<path d="M378.48 181.682L334.883 204.279L335.802 205.942L379.4 183.346L378.48 181.682Z" fill="#CACACA"/>
<path d="M220.682 346.158H-35.7966C-36.7399 346.157 -37.6443 345.794 -38.3113 345.148C-38.9783 344.502 -39.3535 343.626 -39.3546 342.713V185.776C-39.3536 184.863 -38.9784 183.987 -38.3113 183.341C-37.6443 182.695 -36.7399 182.332 -35.7966 182.331H220.682C221.625 182.332 222.529 182.695 223.196 183.341C223.863 183.987 224.238 184.863 224.24 185.776V342.713C224.238 343.626 223.863 344.502 223.196 345.148C222.529 345.793 221.625 346.157 220.682 346.158Z" fill="#E4E4E4"/>
<path d="M-12.2101 201.348C-12.6143 201.349 -13.0019 201.505 -13.2878 201.781C-13.5737 202.058 -13.7345 202.434 -13.7349 202.825V325.664C-13.7345 326.056 -13.5737 326.431 -13.2878 326.708C-13.0019 326.985 -12.6143 327.141 -12.2101 327.141H197.095C197.499 327.141 197.887 326.985 198.173 326.708C198.459 326.431 198.619 326.056 198.62 325.664V202.825C198.619 202.434 198.459 202.058 198.173 201.781C197.887 201.505 197.499 201.349 197.095 201.348H-12.2101Z" fill="white"/>
<path d="M199.128 232.987V225.203H169.529V200.856H161.49V225.203H108.794V200.856H100.756V225.203H19.478V200.856H11.4395V225.203H-16.6657V232.987H11.4395V263.259H-16.6657V271.043H11.4395V303.476H-16.6657V311.26H54.7578V327.633H62.7963V311.26H100.756V327.633H108.794V311.26H199.128V303.476H108.794V271.043H199.128V263.259H169.529V232.987H199.128ZM100.756 232.987V242.501H19.478V232.987H100.756ZM19.478 250.285H100.756V263.259H19.478V250.285ZM19.478 303.476V271.043H54.7578V303.476H19.478ZM100.756 303.476H62.7963V271.043H100.756V303.476ZM161.49 263.259H108.794V232.987H161.49V263.259Z" fill="#E6E6E6"/>
<path d="M104.775 278.081C110.447 278.081 115.046 273.628 115.046 268.135C115.046 262.642 110.447 258.189 104.775 258.189C99.102 258.189 94.5034 262.642 94.5034 268.135C94.5034 273.628 99.102 278.081 104.775 278.081Z" fill="#1C1C1C"/>
<path d="M396.793 347H-81V346H397L396.793 347Z" fill="#CACACA"/>
<path d="M106.006 209.049C140.999 209.049 169.366 181.579 169.366 147.693C169.366 113.808 140.999 86.3379 106.006 86.3379C71.0129 86.3379 42.6455 113.808 42.6455 147.693C42.6455 181.579 71.0129 209.049 106.006 209.049Z" fill="#1C1C1C"/>
<path d="M106.625 247.433L86.6082 214.321L66.591 181.208L106.213 180.977L145.834 180.747L126.23 214.09L106.625 247.433Z" fill="#1C1C1C"/>
<path d="M106.514 169.321C119.069 169.321 129.247 159.465 129.247 147.307C129.247 135.15 119.069 125.294 106.514 125.294C93.9595 125.294 83.7817 135.15 83.7817 147.307C83.7817 159.465 93.9595 169.321 106.514 169.321Z" fill="white"/>
<path d="M104.54 0.315266C104.54 0.315266 90.9825 -3.38299 86.9725 14.5535C82.9624 32.4901 85.5094 30.2301 85.5094 30.2301L115.776 26.8093C115.776 26.8093 124.877 5.77018 104.54 0.315266Z" fill="#2F2E41"/>
<path d="M84.8233 79.0034C84.8233 79.0034 64.3692 79.9203 67.9113 87.6951C68.1617 88.2446 68.3948 88.7596 68.6106 89.2398C71.1426 94.8712 74.057 100.334 77.3348 105.592L89.9061 125.763L94.4807 123.302L81.6075 90.8965L93.1785 89.9818L84.8233 79.0034Z" fill="#FFB6B6"/>
<path d="M138.754 87.2377L145.366 101.187C145.366 101.187 150.325 105.989 155.756 125.197C161.187 144.405 162.368 143.719 162.368 143.719L157 145.451L134.976 106.675L124.113 93.4118L127.419 86.323L138.754 87.2377Z" fill="#FFB6B6"/>
<path d="M130.725 71.2307L140.226 88.3551C140.226 88.3551 161.767 129.344 159.541 129.208C157.038 129.055 150.009 131.88 147.851 134.622C146.809 135.946 131.585 103.613 126.238 96.3844L114.667 87.695C114.667 87.695 81.8139 93.0495 81.7736 91.3083C81.7539 90.4554 92.6507 110.919 90.4144 110.012C87.8669 108.979 81.874 114.006 79.2322 112.965C78.1421 112.536 70.4401 94.4528 67.3223 87.0428C66.9311 86.1178 66.9108 85.0847 67.2652 84.146C67.6197 83.2072 68.3233 82.4305 69.2384 81.9679C71.5815 80.7879 104.138 73.5891 104.138 73.5891L103.569 70.7734L105.93 66.2L130.725 71.2307Z" fill="#2F2E41"/>
<path d="M111.242 20.7503C112.057 15.8885 108.647 11.3077 103.627 10.5188C98.6061 9.72986 93.8756 13.0315 93.0609 17.8933C92.2462 22.7551 95.6557 27.3359 100.676 28.1248C105.697 28.9137 110.427 25.6121 111.242 20.7503Z" fill="#FFB6B6"/>
<path d="M131.585 72.6047C132.094 74.082 128.8 74.9306 124.21 74.1005C120.238 73.3825 115.891 72.5296 112.462 71.839C108.79 71.0981 106.166 70.5447 106.166 70.5447C106.166 70.5447 105.222 76.2615 102.152 75.5755C99.5071 74.9855 91.6034 48.2517 89.4663 40.8633C89.3101 40.3239 89.3403 39.7497 89.5521 39.2284C89.764 38.707 90.146 38.267 90.64 37.9752L101.495 31.5564C101.495 31.5564 108.976 29.0685 111.704 28.9976C114.431 28.9267 119.154 28.2407 119.154 28.2407C119.154 28.2407 124.585 28.6981 125.53 32.5854C126.475 36.4728 130.416 59.5215 130.489 65.0566C130.569 71.1281 130.061 68.1749 131.585 72.6047Z" fill="#CACACA"/>
<path d="M105.595 7.8667C105.595 7.8667 101.776 17.6671 92.4191 21.7351L90.8914 13.0443L105.595 7.8667Z" fill="#2F2E41"/>
<path d="M111.125 18.2935C111.843 18.2935 112.424 17.2185 112.424 15.8925C112.424 14.5664 111.843 13.4915 111.125 13.4915C110.408 13.4915 109.826 14.5664 109.826 15.8925C109.826 17.2185 110.408 18.2935 111.125 18.2935Z" fill="#FFB6B6"/>
<path d="M98.2872 128.049L80.0312 136.177L79.925 135.953C79.0587 134.128 78.9764 132.045 79.6963 130.161C80.4162 128.277 81.8792 126.748 83.7636 125.909L83.7641 125.908L94.9142 120.945L98.2872 128.049Z" fill="#2F2E41"/>
<path d="M154.278 144.286L165.476 139.425C167.369 138.604 169.522 138.544 171.46 139.259C173.398 139.974 174.964 141.405 175.812 143.238L175.916 143.463L157.581 151.422L154.278 144.286Z" fill="#2F2E41"/>
<path opacity="0.2" d="M123.961 51.4399L121.823 74.2097L125.624 74.3834L123.961 51.4399Z" fill="black"/>
<path d="M109.059 93.977C109.512 93.4874 109.848 92.9075 110.045 92.2783C110.241 91.649 110.293 90.9857 110.196 90.335C110.099 89.6844 109.856 89.0622 109.484 88.5123C109.112 87.9625 108.62 87.4983 108.043 87.1525L99.8293 46.9761L90.3975 50.4703L101.437 88.8637C100.901 89.8414 100.754 90.9754 101.024 92.0509C101.295 93.1263 101.963 94.0685 102.902 94.6987C103.842 95.329 104.987 95.6037 106.122 95.4707C107.257 95.3377 108.302 94.8062 109.059 93.977Z" fill="#FFB6B6"/>
<path d="M101.907 53.7472L91.5507 55.5136C91.2561 55.5639 90.9537 55.552 90.6642 55.4789C90.3746 55.4058 90.1048 55.2731 89.873 55.0899C89.6412 54.9067 89.4529 54.6772 89.3209 54.4172C89.189 54.1572 89.1164 53.8727 89.1082 53.583L88.8224 43.4345C88.5652 41.973 88.9171 40.4724 89.8007 39.2618C90.6844 38.0511 92.0278 37.2293 93.5364 36.9764C95.0449 36.7235 96.5954 37.0602 97.848 37.9128C99.1005 38.7653 99.9527 40.0641 100.218 41.5242L103.522 51.1247C103.616 51.3996 103.648 51.691 103.616 51.9791C103.584 52.2671 103.488 52.545 103.335 52.7939C103.181 53.0428 102.975 53.2568 102.728 53.4213C102.482 53.5858 102.202 53.697 101.907 53.7472Z" fill="#CACACA"/>
<path d="M116.999 93.2702C117.59 92.947 118.101 92.5023 118.496 91.9672C118.89 91.4322 119.159 90.82 119.282 90.1736C119.406 89.5272 119.382 88.8624 119.212 88.2261C119.041 87.5897 118.729 86.9973 118.297 86.4904L123.821 45.8853L113.73 46.2663L111.473 86.06C110.642 86.8198 110.127 87.8484 110.027 88.951C109.927 90.0535 110.248 91.1533 110.929 92.0421C111.61 92.9308 112.604 93.5467 113.723 93.773C114.842 93.9994 116.008 93.8205 116.999 93.2702Z" fill="#FFB6B6"/>
<path d="M123.547 52.9441L113.152 51.4014C112.857 51.3575 112.574 51.2524 112.324 51.0933C112.074 50.9341 111.863 50.7246 111.704 50.4791C111.545 50.2336 111.442 49.9578 111.403 49.6705C111.365 49.3832 111.39 49.0912 111.478 48.8144L114.568 39.1129C114.808 37.6488 115.639 36.3367 116.877 35.4645C118.114 34.5922 119.659 34.2309 121.172 34.4597C122.684 34.6886 124.041 35.489 124.945 36.6855C125.849 37.8819 126.227 39.3766 125.994 40.842L125.945 50.9614C125.943 51.2511 125.877 51.5371 125.751 51.8C125.625 52.0628 125.442 52.2962 125.215 52.4844C124.987 52.6725 124.72 52.811 124.433 52.8904C124.145 52.9697 123.843 52.988 123.547 52.9441Z" fill="#CACACA"/>
</g>
<defs>
<clipPath id="clip0_73_537">
<rect width="463" height="347" fill="white" transform="translate(-81)"/>
</clipPath>
</defs>
</svg>
