<svg width="393" height="324" viewBox="0 0 393 324" fill="none" xmlns="http://www.w3.org/2000/svg">
<g clip-path="url(#clip0_73_352)">
<path d="M-111 308.553C-111 309.045 -110.626 309.44 -110.161 309.44H404.161C404.626 309.44 405 309.045 405 308.553C405 308.062 404.626 307.667 404.161 307.667H-110.161C-110.626 307.667 -111 308.062 -111 308.553Z" fill="#3F3D56"/>
<path d="M201.123 309.335C222.156 309.335 239.206 291.329 239.206 269.117C239.206 246.906 222.156 228.9 201.123 228.9C180.091 228.9 163.041 246.906 163.041 269.117C163.041 291.329 180.091 309.335 201.123 309.335Z" fill="#3F3D56"/>
<path d="M201.123 295.929C215.145 295.929 226.512 283.925 226.512 269.117C226.512 254.31 215.145 242.306 201.123 242.306C187.102 242.306 175.735 254.31 175.735 269.117C175.735 283.925 187.102 295.929 201.123 295.929Z" fill="white"/>
<path d="M201.123 284.385C209.108 284.385 215.581 277.55 215.581 269.118C215.581 260.685 209.108 253.85 201.123 253.85C193.139 253.85 186.666 260.685 186.666 269.118C186.666 277.55 193.139 284.385 201.123 284.385Z" fill="#3F3D56"/>
<path d="M-18.9103 309.335C2.12222 309.335 19.1724 291.329 19.1724 269.117C19.1724 246.906 2.12222 228.9 -18.9103 228.9C-39.9428 228.9 -56.993 246.906 -56.993 269.117C-56.993 291.329 -39.9428 309.335 -18.9103 309.335Z" fill="#3F3D56"/>
<path d="M-18.9103 295.929C-4.88866 295.929 6.47816 283.925 6.47816 269.117C6.47816 254.31 -4.88866 242.306 -18.9103 242.306C-32.932 242.306 -44.2988 254.31 -44.2988 269.117C-44.2988 283.925 -32.932 295.929 -18.9103 295.929Z" fill="white"/>
<path d="M253.219 249.992C248.261 236.787 230.927 196.442 200.051 183.088C199.812 182.984 199.565 182.917 199.311 182.88L100.289 167.902C98.6596 167.657 97.1363 168.833 96.8754 170.554L95.1405 181.874C95.0206 182.649 95.1757 183.446 95.5777 184.109C100.606 192.346 132.835 248.271 81.2262 248.271C29.617 248.271 15.3924 209.267 13.1356 202.378C12.9241 201.73 12.917 201.03 13.1074 200.375L28.7495 148.054C29.0246 147.123 28.8765 146.17 28.4251 145.41L35.3012 131.922L47.8967 139.452L54.4201 139.534L76.6844 151.823L81.2191 144.003L35.3012 119.812C35.3012 119.812 35.3788 114.211 20.5688 109.743L-2.70398 98.5712L-5.52492 102.295L1.52744 108.253L2.23267 112.722L7.16933 114.211L17.0426 134.32L14.2217 140.085L17.6491 141.85L16.6689 141.612C15.2513 141.269 13.8056 142.044 13.2273 143.451L-2.3302 181.107C-2.56998 181.681 -2.96492 182.172 -3.46563 182.515L-9.00879 186.291C-9.52361 186.641 -9.93265 187.155 -10.1654 187.758L-16.4984 203.972C-16.6959 204.478 -16.7523 205.007 -16.7029 205.521C-24.5945 207.1 -47.7897 213.922 -60.5333 240.831L-45.7234 253.492C-45.7234 253.492 -22.507 237.628 15.8578 254.147C22.5294 265.111 32.2546 274.204 46.3029 275.061C83.3348 277.325 144.69 279.559 151.743 270.622C156.905 264.075 160.495 259.994 162.053 258.274C162.603 257.67 163.351 257.32 164.141 257.29L250.497 254.378C252.591 254.311 253.981 252.062 253.212 250.006L253.219 249.992Z" fill="#1C1C1C"/>
<path d="M14.941 132.823C21.1729 132.823 26.2248 127.488 26.2248 120.907C26.2248 114.326 21.1729 108.991 14.941 108.991C8.70914 108.991 3.65723 114.326 3.65723 120.907C3.65723 127.488 8.70914 132.823 14.941 132.823Z" fill="#3F3D56"/>
<path d="M195.644 183.14C195.51 183.14 195.376 183.14 195.242 183.133L100.895 179.275C96.7202 179.104 93.1447 176.296 91.7836 172.125L90.493 168.156C89.4422 164.923 89.9006 161.453 91.7483 158.645C93.6031 155.837 96.5228 154.184 99.7598 154.102L197.238 151.733C200.256 151.659 203.161 153.022 205.129 155.479C207.097 157.937 207.901 161.155 207.329 164.32L205.489 174.509C204.579 179.566 200.467 183.133 195.637 183.133L195.644 183.14Z" fill="#3F3D56"/>
<path d="M233.55 225.652C231.293 225.652 229.142 224.379 227.993 222.182L220.849 208.522C219.713 206.355 219.784 203.815 221.025 201.723C222.266 199.622 224.41 198.446 226.738 198.58L239.707 199.28C242.119 199.414 244.291 201.015 245.236 203.369L249.023 212.827C249.714 214.563 249.7 216.454 248.974 218.175C248.247 219.888 246.921 221.176 245.243 221.787L235.638 225.287C234.954 225.541 234.248 225.66 233.557 225.66L233.55 225.652Z" fill="#3F3D56"/>
<path d="M69.5475 316.433C69.4417 316.433 69.3289 316.433 69.2231 316.411L66.3457 316.076C65.4078 315.964 64.5897 315.405 64.1101 314.541C63.6306 313.677 63.5671 312.657 63.9338 311.734L78.913 274.167C79.3221 273.139 80.2318 272.409 81.2826 272.268C82.3052 272.134 83.2996 272.558 83.9555 273.4C84.6043 274.242 84.8018 275.359 84.4703 276.387L72.3755 314.288C71.9664 315.569 70.8098 316.426 69.5545 316.426L69.5475 316.433Z" fill="#3F3D56"/>
<path d="M147.314 54.2792C147.314 54.2792 141.834 42.7054 142.927 32.2935L124.69 42.2735L125.395 61.2206L147.314 54.2792Z" fill="#A0616A"/>
<path d="M135.995 47.621C145.082 47.621 152.448 39.8417 152.448 30.2454C152.448 20.6491 145.082 12.8698 135.995 12.8698C126.908 12.8698 119.542 20.6491 119.542 30.2454C119.542 39.8417 126.908 47.621 135.995 47.621Z" fill="#A0616A"/>
<path d="M152.801 303.072H142.758L137.984 262.176H152.801V303.072Z" fill="#A0616A"/>
<path d="M118.406 302.826C118.096 303.385 117.927 305.18 117.927 305.82C117.927 307.809 119.45 309.417 121.333 309.417H152.42C153.703 309.417 154.747 308.315 154.747 306.96V305.589C154.747 305.589 156.284 301.478 153.118 296.421C153.118 296.421 149.183 300.383 143.301 294.179L141.566 290.865L129.013 300.562L122.052 301.463C120.529 301.664 119.182 301.433 118.399 302.826H118.406Z" fill="#2F2E41"/>
<path d="M123.202 54.2792L147.314 50.8086L165.946 60.0662L167.039 131.818C167.039 131.818 121.213 137.605 113.991 130.083C106.77 122.56 112.25 62.3824 112.25 62.3824L123.209 54.2792H123.202Z" fill="#E6E6E6"/>
<path d="M131.876 34.6694H127.454C127.454 34.6694 123.618 29.6794 124.133 32.718C124.648 35.7567 122.581 39.0263 122.581 39.0263L119.485 37.9389C119.485 37.9389 113.293 10.4343 131.876 8.92244C150.459 7.41055 154.592 22.6785 154.592 22.6785C154.592 22.6785 153.562 30.3124 151.496 28.1302C149.43 25.948 138.075 24.8607 138.075 24.8607L131.883 34.6768L131.876 34.6694Z" fill="#2F2E41"/>
<path d="M120.176 293.881L110.522 296.756L95.4015 258.78L109.661 254.527L120.176 293.881Z" fill="#A0616A"/>
<path d="M87.0162 303.519C86.861 304.144 87.1643 305.917 87.3265 306.542C87.8343 308.456 89.7172 309.566 91.5297 309.03L121.446 300.108C122.68 299.743 123.399 298.38 123.054 297.076L122.701 295.758C122.701 295.758 123.124 291.364 118.773 287.402C118.773 287.402 116.008 292.347 108.752 288.057L106.227 285.361L96.6427 298.29L90.1827 301.158C88.7722 301.783 87.4111 301.955 87.0162 303.519Z" fill="#2F2E41"/>
<path d="M163.746 124.877L167.032 135.378V171.462L157.166 280.378H137.899L135.727 202.631L137.441 164.231L100.691 222.949L116.841 264.887L99.0616 277.407C99.0616 277.407 72.4742 213.423 76.4517 207.219C80.4293 201.023 116.058 127.833 116.058 127.833C116.058 127.833 163.732 126.038 163.732 124.884L163.746 124.877Z" fill="#2F2E41"/>
<path d="M173.612 83.2139L178.908 92.3746C178.908 92.3746 186.398 123.462 178.908 123.588C171.419 123.715 156.298 107.747 156.298 107.747L158.273 99.4127L163.753 101.729L162.66 83.2139H173.619H173.612Z" fill="#A0616A"/>
<path d="M157.173 59.9247C157.173 59.9247 174.705 56.6626 176.348 68.7801C177.992 80.8976 178.908 92.3821 178.908 92.3821L159.909 94.0429L157.173 59.9247Z" fill="#E6E6E6"/>
<path d="M160.981 106.732C162.568 104.38 160.245 99.7598 155.794 96.4118C151.343 93.0639 146.449 92.2565 144.863 94.6085C143.277 96.9604 145.599 101.581 150.05 104.929C154.501 108.277 159.395 109.084 160.981 106.732Z" fill="#A0616A"/>
<path d="M305.428 228.49C303.199 228.743 300.766 229.123 298.178 229.682C287.211 232.042 286.979 239.907 287.077 241.71L287 241.658C285.9 243.527 285.209 245.419 284.785 247.199L284.285 223.09C284.609 222.375 284.905 221.563 285.152 220.737C285.97 223.41 287.317 225.928 288.481 225.764C289.99 225.548 290.646 220.856 290.364 217.527C292.282 220.133 295.512 222.926 296.732 222.062C297.705 221.377 297.127 218.547 296.069 215.97C298.284 217.378 300.738 218.301 301.5 217.408C302.536 216.186 300.047 212.023 297.755 209.699C300.822 210.005 304.73 209.483 304.99 208.009C305.202 206.795 302.875 205.26 300.385 204.27C302.882 203.577 305.223 202.363 305.146 201.164C305.054 199.741 301.584 198.781 298.587 198.639C300.844 196.777 302.917 194.193 302.282 193.031C301.697 191.959 298.989 192.376 296.485 193.322C297.966 191.087 299.01 188.562 298.213 187.698C297.226 186.626 293.721 188.48 291.323 190.529C291.788 187.334 291.556 183.304 290.195 182.939C289.059 182.634 287.451 184.98 286.351 187.535C285.864 184.853 284.877 182.306 283.742 182.306C282.12 182.306 280.808 187.468 280.808 190.834C280.808 191.028 280.808 191.206 280.822 191.378C280.66 191.177 280.469 190.968 280.258 190.752C277.973 188.406 273.551 185.807 272.416 187.036C271.626 187.9 272.662 190.417 274.143 192.659C271.64 191.713 268.925 191.296 268.346 192.368C267.564 193.806 270.913 197.403 273.636 199.146C273.473 199.123 273.297 199.108 273.114 199.094C269.933 198.863 264.968 199.898 264.855 201.603C264.778 202.803 267.112 204.016 269.616 204.709C267.126 205.7 264.806 207.234 265.011 208.448C265.264 209.923 269.172 210.444 272.246 210.139C269.954 212.462 267.465 216.626 268.502 217.847C269.263 218.741 271.717 217.817 273.932 216.41C272.867 218.987 272.296 221.817 273.269 222.502C274.552 223.41 278.086 220.245 279.94 217.527C279.75 220.856 280.505 225.429 282 225.608C282.627 225.682 283.29 224.975 283.89 223.895L282.197 249.805C281.802 252.822 284.334 254.795 284.56 256.032L284.926 273.579C284.51 272.327 283.96 271.046 283.206 269.78L283.128 269.832C283.227 268.03 282.994 260.165 272.028 257.804C269.439 257.246 267.006 256.866 264.778 256.613C262.147 256.315 261.118 260.121 263.494 261.349C266.936 263.129 270.173 265.371 271.866 268.023C276.182 274.807 282.141 270.89 282.994 270.279C283.939 271.948 284.56 273.623 284.955 275.217L285.152 284.534C285.103 284.758 285.075 284.877 285.068 284.884L285.159 284.914L285.632 307.466L289.99 307.429L288.432 284.378C288.692 283.134 289.496 278.896 288.432 274.502L286.873 256.389L284.842 249.269C285.138 247.065 285.822 244.592 287.218 242.142C288.065 242.752 294.031 246.677 298.347 239.885C300.033 237.234 303.277 234.992 306.718 233.212C309.095 231.983 308.072 228.177 305.435 228.475L305.428 228.49ZM285.519 281.846L285.434 277.898C285.596 279.388 285.589 280.736 285.519 281.846Z" fill="#F2F2F2"/>
<path d="M254.672 304.666L262.253 302.938L259.538 271.255L248.36 273.802L254.672 304.666Z" fill="#A0616A"/>
<path d="M280.596 298.566C280.921 298.931 281.323 300.256 281.422 300.748C281.732 302.245 280.829 303.727 279.405 304.047L255.941 309.402C254.975 309.626 254.016 308.97 253.805 307.95L253.593 306.915C253.593 306.915 251.795 304.077 253.403 299.713C253.403 299.713 256.985 302.029 260.462 296.324L261.259 293.524L272.232 298.678L277.62 298.164C278.798 298.052 279.785 297.642 280.589 298.566H280.596Z" fill="#2F2E41"/>
<path d="M268.227 302.245L274.545 297.508L260.25 269.505L250.92 276.491L268.227 302.245Z" fill="#A0616A"/>
<path d="M289.786 285.86C290.216 286.061 291.083 287.111 291.351 287.521C292.19 288.772 291.915 290.507 290.731 291.394L271.153 306.066C270.342 306.669 269.228 306.468 268.65 305.619L268.071 304.755C268.071 304.755 265.363 302.893 265.215 298.208C265.215 298.208 269.369 298.849 270.448 292.161L270.138 289.256L282.148 289.435L286.915 286.724C287.959 286.128 288.714 285.346 289.793 285.86H289.786Z" fill="#2F2E41"/>
<path d="M177.159 145.581C177.159 145.581 165.375 162.503 188.944 181.532L237.076 165.288L219.883 127.424L204.657 118.606L177.152 145.574L177.159 145.581Z" fill="#2F2E41"/>
<path d="M237.083 165.296L255.744 203.674L267.535 283.559L252.803 284.594L238.064 208.865L212.033 167.887L230.207 159.069" fill="#2F2E41"/>
<path d="M188.951 169.481V181.539L222.351 220.275C222.351 220.275 222.351 249.321 235.123 262.809L249.855 286.672L262.627 279.41L243.966 209.908L210.566 164.26L188.958 169.481H188.951Z" fill="#2F2E41"/>
<path d="M212.682 49.9522L206.391 75.282L182.406 70.2994C182.406 70.2994 199.142 52.0748 196.786 43.7705L212.689 49.9522H212.682Z" fill="#A0616A"/>
<path d="M194.353 53.7728L209.085 61.0344C209.085 61.0344 216.667 65.9276 216.808 69.1897C216.949 72.4518 215.961 88.0102 215.961 88.0102C215.961 88.0102 221.857 94.2365 217.929 106.682L219.897 127.431L175.693 152.329L179.621 108.76L177.653 68.3034L194.353 53.7803V53.7728Z" fill="#3F3D56"/>
<path d="M181.13 171.835C182.858 176.013 186.299 178.463 188.817 177.301C191.335 176.14 191.976 171.812 190.256 167.634C189.586 165.951 188.549 164.469 187.223 163.3L179.698 145.686L171.948 149.588L180.185 166.539C180.093 168.357 180.418 170.174 181.13 171.835Z" fill="#A0616A"/>
<path d="M188.951 70.8953C188.951 70.8953 178.147 63.6337 174.219 71.9305C170.29 80.2273 161.447 122.761 161.447 122.761L174.219 163.218L186.003 158.034L175.685 114.494L188.944 70.8953H188.951Z" fill="#3F3D56"/>
<path d="M244.333 165.303C247.394 168.52 251.449 169.459 253.388 167.396C255.328 165.333 254.411 161.065 251.35 157.848C250.144 156.544 248.656 155.569 247.02 154.995L233.881 141.545L228.035 148.188L241.604 160.738C242.154 162.465 243.092 164.029 244.333 165.296V165.303Z" fill="#A0616A"/>
<path d="M216.392 68.4151C216.392 68.4151 197.555 67.6033 196.793 76.846C196.039 86.0886 208.916 127.334 208.916 127.334L234.904 159.978L244.051 150.571L219.276 114.107L216.399 68.4151H216.392Z" fill="#3F3D56"/>
<path d="M161.235 143.31L145.501 92.8662C132.779 81.0317 118.977 109.534 81.9314 93.3727L93.5819 150.43C121.594 134.44 145.699 128.176 161.235 143.31Z" fill="white"/>
<path d="M93.5819 151.919C93.4831 151.919 93.3774 151.897 93.2857 151.852C93.0812 151.756 92.9401 151.562 92.8907 151.331L81.2402 94.2738C81.1838 94.0057 81.2755 93.7227 81.48 93.5439C81.6845 93.3652 81.9596 93.3205 82.1994 93.4248C103.244 102.6 116.826 97.1412 126.749 93.1492C134.288 90.1179 140.24 87.7198 145.967 93.0449C146.058 93.1343 146.129 93.246 146.171 93.3726L161.905 143.816C162.004 144.137 161.884 144.494 161.616 144.673C161.348 144.859 160.988 144.822 160.756 144.591C147.102 131.289 125.861 133.583 93.9204 151.823C93.8146 151.882 93.7018 151.912 93.5819 151.912V151.919ZM82.8976 95.3314L94.0685 150.05C124.718 132.719 145.713 130.045 159.768 141.761L144.881 94.0429C139.838 89.4849 134.542 91.6149 127.243 94.5494C117.299 98.5488 103.751 104.001 82.8976 95.3388V95.3314Z" fill="#3F3D56"/>
<path d="M106.333 68.8323L96.3747 71.007C96.3747 71.007 69.7591 86.476 74.7945 92.3374C79.8228 98.1988 101.198 98.951 101.198 98.951L105.613 91.7341L100.268 89.0902L113.822 77.2855L106.333 68.8323Z" fill="#A0616A"/>
<path d="M133.668 65.5925C133.668 65.5925 123.942 49.8405 114.443 56.8563C104.943 63.8721 96.3817 71.007 96.3817 71.007L108.216 86.7888L133.675 65.5925H133.668Z" fill="#E6E6E6"/>
<path d="M118.093 98.7872C118.635 95.957 114.733 92.7348 109.377 91.5902C104.021 90.4456 99.2392 91.812 98.6969 94.6421C98.1546 97.4723 102.057 100.694 107.413 101.839C112.769 102.984 117.55 101.617 118.093 98.7872Z" fill="#A0616A"/>
<path d="M302.007 314.251C305.295 314.251 307.96 311.437 307.96 307.965C307.96 304.493 305.295 301.679 302.007 301.679C298.72 301.679 296.055 304.493 296.055 307.965C296.055 311.437 298.72 314.251 302.007 314.251Z" fill="#3F3D56"/>
<path d="M309.941 324C313.229 324 315.893 321.186 315.893 317.714C315.893 314.243 313.229 311.428 309.941 311.428C306.654 311.428 303.989 314.243 303.989 317.714C303.989 321.186 306.654 324 309.941 324Z" fill="#3F3D56"/>
<path d="M369.449 324C372.736 324 375.401 321.186 375.401 317.714C375.401 314.243 372.736 311.428 369.449 311.428C366.162 311.428 363.497 314.243 363.497 317.714C363.497 321.186 366.162 324 369.449 324Z" fill="#3F3D56"/>
<path d="M318.658 223.649V155.39C318.658 147.749 324.709 145.857 331.945 145.857C335.492 145.857 337.213 145.425 339.702 148.091C342.192 150.758 344.956 151.867 344.9 155.613L343.856 222.591L318.651 223.641L318.658 223.649ZM332.65 150.333C326.19 150.333 320.068 148.575 320.068 155.398V222.107L342.474 221.169L343.496 155.599C343.546 152.255 338.398 152.716 336.183 150.333C333.962 147.95 335.823 150.333 332.657 150.333H332.65Z" fill="#3F3D56"/>
<path d="M300.942 222.822L300.04 297.397C300.026 298.357 300.244 299.303 300.667 300.152L307.339 313.461C308.319 315.42 310.28 316.604 312.374 316.508L370.951 313.782C373.948 313.64 376.269 310.959 376.135 307.794L372.46 222.643C372.326 219.582 369.943 217.169 367.037 217.169H306.366C303.397 217.169 300.978 219.694 300.935 222.83L300.942 222.822Z" fill="#E6E6E6"/>
<path d="M324.032 256.479L322.621 256.404L323.143 245.367C323.425 239.423 328.059 234.657 333.694 234.515L358.638 233.904C363.673 233.815 367.848 237.844 368.123 243.162L368.652 253.254L367.242 253.336L366.713 243.244C366.473 238.738 362.911 235.282 358.666 235.394L333.722 236.005C328.82 236.124 324.793 240.272 324.547 245.441L324.025 256.479H324.032Z" fill="#3F3D56"/>
<path d="M323.037 309.939L321.634 309.79L324.674 278.464C325.238 272.67 329.815 268.104 335.323 267.844L359.653 266.689C362.721 266.54 365.634 267.687 367.862 269.914C370.091 272.141 371.332 275.15 371.367 278.39L371.642 305.664L370.232 305.678L369.957 278.405C369.929 275.575 368.843 272.946 366.896 270.994C364.95 269.043 362.39 268.045 359.724 268.172L335.393 269.326C330.576 269.557 326.578 273.541 326.084 278.606L323.045 309.931L323.037 309.939Z" fill="#3F3D56"/>
<path d="M312.134 307.771L310.724 307.749L311.613 236.161C311.676 231.268 315.35 227.321 319.984 227.172L367.94 225.682L367.982 227.172L320.026 228.661C316.147 228.78 313.072 232.08 313.023 236.176L312.134 307.764V307.771Z" fill="#3F3D56"/>
<path d="M312.261 297.575H311.281V232.378C311.281 230.315 309.694 228.631 307.734 228.631H302.254V227.142H307.734C310.322 227.142 312.452 229.25 312.67 231.916C312.685 232.065 312.692 232.221 312.692 232.378V263.249L312.261 297.575Z" fill="#3F3D56"/>
<path d="M222.922 36.4121C222.922 45.9601 215.595 53.6984 206.554 53.6984C197.513 53.6984 190.185 45.9601 190.185 36.4121C190.185 26.8641 197.513 19.1259 206.554 19.1259C215.595 19.1259 222.922 26.8641 222.922 36.4121Z" fill="#A0616A"/>
<path d="M205.249 13.1751C205.721 13.4656 206.356 13.0262 206.511 12.4676C206.667 11.909 206.483 11.3206 206.314 10.7695C206.018 9.84599 205.729 8.92991 205.432 8.00639C204.805 6.04763 204.142 4.02184 202.788 2.53228C200.743 0.283061 197.484 -0.290417 194.558 0.126658C190.799 0.662897 187.089 2.80785 185.34 6.36788C183.591 9.92791 184.339 14.8881 187.498 17.1076C182.992 22.5593 181.426 28.6367 181.673 35.861C181.92 43.0928 189.381 49.7436 194.247 54.8379C195.333 54.1453 196.321 50.8832 195.721 49.699C195.122 48.5148 195.982 47.1444 195.242 46.0496C194.501 44.9622 193.881 46.6975 194.628 45.6101C195.101 44.9249 193.26 43.3535 193.958 42.9438C197.35 40.9627 198.479 36.4941 200.609 33.0756C203.183 28.9495 207.576 26.1566 212.238 25.6948C214.805 25.4416 217.513 25.9034 219.615 27.4748C221.716 29.0463 223.077 31.8541 222.591 34.5279C223.853 33.1724 224.481 31.1913 224.248 29.307C224.008 27.4227 222.915 25.6799 221.357 24.7192C222.302 21.4198 221.491 17.6215 219.297 15.0743C217.104 12.5197 208.211 12.9592 205.009 13.6294L205.256 13.1826L205.249 13.1751Z" fill="#2F2E41"/>
<path d="M204.755 25.7916C200.517 26.2757 197.456 30.156 194.868 33.7384C193.38 35.8014 191.814 38.0804 191.857 40.6797C191.892 43.3013 193.556 45.558 194.353 48.0381C195.651 52.1046 194.388 56.9382 191.299 59.7236C194.353 60.3344 197.654 57.9213 198.175 54.6815C198.789 50.9204 196.088 47.2859 196.405 43.4801C196.687 40.1286 199.191 37.5516 201.314 35.0417C203.444 32.5319 205.439 29.2101 204.459 26.0076L204.755 25.7916Z" fill="#2F2E41"/>
</g>
<defs>
<clipPath id="clip0_73_352">
<rect width="516" height="324" fill="white" transform="translate(-111)"/>
</clipPath>
</defs>
</svg>
