<svg width="393" height="488" viewBox="0 0 393 488" fill="none" xmlns="http://www.w3.org/2000/svg">
<path d="M200.251 487.15C200.251 487.621 200.651 488 201.149 488H400.094C400.592 488 400.993 487.621 400.993 487.15C400.993 486.679 400.592 486.3 400.094 486.3H201.149C200.651 486.3 200.251 486.679 200.251 487.15Z" fill="#3F3D58"/>
<path d="M272.579 249.039L270.277 254.489C270.277 254.489 268.156 262.118 270.639 265.161C273.122 268.204 273.673 291.497 271.009 293.219C268.337 294.94 304.837 277.268 304.837 277.268C304.837 277.268 290.587 245.996 290.346 245.882C290.104 245.768 280.768 243.011 280.768 243.011L272.586 249.032L272.579 249.039Z" fill="#2F2E43"/>
<path d="M296.338 275.975L284.111 279.783V263.125H295.206L296.338 275.975Z" fill="#F6A6A9"/>
<path d="M258.963 370.548C258.299 374.363 255.612 377.098 252.955 376.663C250.298 376.22 248.683 372.77 249.347 368.955C249.589 367.427 250.23 365.984 251.212 364.741L254.246 348.605L262.495 350.241L258.631 365.97C259.136 367.455 259.257 369.027 258.963 370.548Z" fill="#F6A6A9"/>
<path d="M291.749 462.464H280.292V477.843H291.749V462.464Z" fill="#F6A6A9"/>
<path d="M269.137 487.15C267.929 487.15 266.858 487.121 266.05 487.05C263.008 486.786 260.103 484.664 258.646 483.421C257.989 482.864 257.778 481.971 258.125 481.207C258.367 480.657 258.857 480.243 259.469 480.078L267.507 477.907L280.526 469.593L280.67 469.835C280.722 469.928 282.006 472.107 282.428 473.578C282.594 474.135 282.549 474.607 282.3 474.964C282.126 475.214 281.892 475.357 281.696 475.443C281.93 475.678 282.67 476.15 284.942 476.493C288.262 476.993 288.957 473.735 288.987 473.6L289.01 473.493L289.108 473.435C290.685 472.471 291.659 472.035 291.999 472.128C292.21 472.185 292.557 472.285 293.5 481.157C293.599 481.436 294.255 483.478 293.81 485.429C293.319 487.55 283.523 486.821 281.56 486.65C281.507 486.65 274.164 487.15 269.137 487.15Z" fill="#2F2E43"/>
<path d="M324.357 450.373L314.635 456.111L323.234 469.16L332.956 463.422L324.357 450.373Z" fill="#F6A6A9"/>
<path d="M311.449 485.043C310.105 485.043 308.867 484.893 307.992 484.743C307.124 484.6 306.452 483.95 306.309 483.128C306.211 482.536 306.392 481.943 306.814 481.5L312.422 475.628L318.822 462.057L319.087 462.192C319.185 462.242 321.487 463.45 322.672 464.485C323.125 464.878 323.351 465.3 323.336 465.728C323.336 466.028 323.208 466.271 323.094 466.435C323.426 466.514 324.317 466.55 326.438 465.7C329.532 464.464 328.31 461.35 328.249 461.214L328.204 461.114L328.257 461.014C329.057 459.407 329.638 458.542 329.978 458.457C330.189 458.4 330.544 458.314 336.303 465.364C336.537 465.55 338.242 466.95 338.952 468.835C339.722 470.885 330.997 475.171 329.246 476.007C329.193 476.05 320.06 482.328 316.317 484.114C314.83 484.821 313.071 485.043 311.464 485.043H311.449Z" fill="#2F2E43"/>
<path d="M300.18 333.869H268.118L265.205 362.098L277.937 466.4H294.308L287.764 406.156L314.317 460.542L328.868 450.907L308.135 400.134C308.135 400.134 315.539 355.898 309.72 344.884C303.901 333.869 300.188 333.869 300.188 333.869H300.18Z" fill="#2F2E43"/>
<path d="M316.128 335.591H260.472L280.481 273.283H302.671L316.128 335.591Z" fill="#E6E6E6"/>
<path d="M283.983 273.29C283.983 273.29 270.163 272.947 268.707 276.39C267.25 279.833 250.155 361.762 250.155 361.762H261.431L283.983 273.29Z" fill="#E6E6E6"/>
<path d="M285.628 267.733C292.356 267.733 297.81 262.571 297.81 256.204C297.81 249.837 292.356 244.675 285.628 244.675C278.901 244.675 273.447 249.837 273.447 256.204C273.447 262.571 278.901 267.733 285.628 267.733Z" fill="#F6A6A9"/>
<path d="M287.991 238.289C287.991 238.289 302.663 234.732 307.146 253.204C307.146 253.204 307.267 258.025 309.811 259.975C312.354 261.925 311.509 272.025 311.509 272.025C311.509 272.025 316.362 279.597 312.233 283.04C312.233 283.04 310.415 290.04 313.079 294.054C315.743 298.069 325.812 320.162 309.079 321.505C309.079 321.505 300.595 316.655 304.595 302.197C308.596 287.74 304.112 279.754 304.112 279.754C304.112 279.754 291.259 275.347 291.991 265.932C292.716 256.525 283.749 247.232 283.138 247.346C282.526 247.461 276.224 244.018 273.439 254.575L270.45 254.097C270.45 254.097 269.197 236.332 287.991 238.282V238.289Z" fill="#2F2E43"/>
<path d="M325.623 368.691C326.438 372.484 324.951 375.941 322.302 376.427C319.653 376.905 316.853 374.227 316.037 370.434C315.69 368.927 315.743 367.355 316.196 365.87L312.973 349.769L321.298 348.526L323.585 364.534C324.619 365.755 325.313 367.184 325.615 368.705L325.623 368.691Z" fill="#F6A6A9"/>
<path d="M292.972 273.361C292.972 273.361 305.146 271.904 306.603 275.347C308.06 278.79 325.155 360.72 325.155 360.72H313.879L292.98 273.368L292.972 273.361Z" fill="#E6E6E6"/>
<path d="M62.0174 151.309H2.69379C-4.95187 151.309 -11.1786 145.424 -11.1786 138.181V82.037C-11.1786 74.8011 -4.95941 68.9082 2.69379 68.9082H62.0174C69.6631 68.9082 75.8898 74.794 75.8898 82.037V138.181C75.8898 145.416 69.6706 151.309 62.0174 151.309ZM2.69379 70.3368C-4.12164 70.3368 -9.66908 75.5869 -9.66908 82.037V138.181C-9.66908 144.631 -4.12164 149.881 2.69379 149.881H62.0174C68.8329 149.881 74.3803 144.631 74.3803 138.181V82.037C74.3803 75.5869 68.8329 70.3368 62.0174 70.3368H2.69379Z" fill="#CCCCCC"/>
<path d="M62.0174 304.219H2.69379C-4.95187 304.219 -11.1786 298.333 -11.1786 291.09V234.946C-11.1786 227.71 -4.95941 221.818 2.69379 221.818H62.0174C69.6631 221.818 75.8898 227.703 75.8898 234.946V291.09C75.8898 298.326 69.6706 304.219 62.0174 304.219ZM2.69379 223.246C-4.12164 223.246 -9.66908 228.496 -9.66908 234.946V291.09C-9.66908 297.54 -4.12164 302.79 2.69379 302.79H62.0174C68.8329 302.79 74.3803 297.54 74.3803 291.09V234.946C74.3803 228.496 68.8329 223.246 62.0174 223.246H2.69379Z" fill="#CCCCCC"/>
<path d="M190.839 151.309H131.515C123.87 151.309 117.643 145.424 117.643 138.181V82.037C117.643 74.8011 123.862 68.9082 131.515 68.9082H190.839C198.485 68.9082 204.711 74.794 204.711 82.037V138.181C204.711 145.416 198.492 151.309 190.839 151.309ZM131.515 70.3368C124.7 70.3368 119.152 75.5869 119.152 82.037V138.181C119.152 144.631 124.7 149.881 131.515 149.881H190.839C197.654 149.881 203.202 144.631 203.202 138.181V82.037C203.202 75.5869 197.654 70.3368 190.839 70.3368H131.515Z" fill="#CCCCCC"/>
<path d="M203.956 89.2227C213.673 89.2227 221.55 81.7682 221.55 72.5725C221.55 63.3768 213.673 55.9222 203.956 55.9222C194.24 55.9222 186.363 63.3768 186.363 72.5725C186.363 81.7682 194.24 89.2227 203.956 89.2227Z" fill="#1C1C1C"/>
<path d="M50.047 168.453H14.6566C11.8867 168.453 9.63751 166.324 9.63751 163.702C9.63751 161.081 11.8867 158.952 14.6566 158.952H50.047C52.817 158.952 55.0662 161.081 55.0662 163.702C55.0662 166.324 52.817 168.453 50.047 168.453Z" fill="#E6E6E6"/>
<path d="M181.072 168.453H145.682C142.912 168.453 140.663 166.324 140.663 163.702C140.663 161.081 142.912 158.952 145.682 158.952H181.072C183.842 158.952 186.091 161.081 186.091 163.702C186.091 166.324 183.842 168.453 181.072 168.453Z" fill="#E6E6E6"/>
<path d="M190.839 305.647H131.515C123.87 305.647 117.643 299.761 117.643 292.519V236.375C117.643 229.139 123.862 223.246 131.515 223.246H190.839C198.485 223.246 204.711 229.132 204.711 236.375V292.519C204.711 299.754 198.492 305.647 190.839 305.647ZM131.515 224.675C124.7 224.675 119.152 229.925 119.152 236.375V292.519C119.152 298.969 124.7 304.219 131.515 304.219H190.839C197.654 304.219 203.202 298.969 203.202 292.519V236.375C203.202 229.925 197.654 224.675 190.839 224.675H131.515Z" fill="#CCCCCC"/>
<path d="M181.072 322.783H145.682C142.912 322.783 140.663 320.655 140.663 318.033C140.663 315.412 142.912 313.283 145.682 313.283H181.072C183.842 313.283 186.091 315.412 186.091 318.033C186.091 320.655 183.842 322.783 181.072 322.783Z" fill="#E6E6E6"/>
<path d="M319.668 151.309H260.344C252.698 151.309 246.472 145.424 246.472 138.181V82.037C246.472 74.8011 252.691 68.9082 260.344 68.9082H319.668C327.313 68.9082 333.54 74.794 333.54 82.037V138.181C333.54 145.416 327.321 151.309 319.668 151.309ZM260.344 70.3368C253.529 70.3368 247.981 75.5869 247.981 82.037V138.181C247.981 144.631 253.529 149.881 260.344 149.881H319.668C326.483 149.881 332.031 144.631 332.031 138.181V82.037C332.031 75.5869 326.483 70.3368 319.668 70.3368H260.344Z" fill="#CCCCCC"/>
<path d="M309.894 168.453H274.503C271.733 168.453 269.484 166.324 269.484 163.702C269.484 161.081 271.733 158.952 274.503 158.952H309.894C312.664 158.952 314.913 161.081 314.913 163.702C314.913 166.324 312.664 168.453 309.894 168.453Z" fill="#E6E6E6"/>
<path d="M50.047 321.355H14.6566C11.8867 321.355 9.63751 319.226 9.63751 316.605C9.63751 313.983 11.8867 311.855 14.6566 311.855H50.047C52.817 311.855 55.0662 313.983 55.0662 316.605C55.0662 319.226 52.817 321.355 50.047 321.355Z" fill="#E6E6E6"/>
<path d="M84.7204 371.177C87.1047 371.177 89.0376 369.348 89.0376 367.091C89.0376 364.835 87.1047 363.005 84.7204 363.005C82.3361 363.005 80.4032 364.835 80.4032 367.091C80.4032 369.348 82.3361 371.177 84.7204 371.177Z" fill="#1C1C1C"/>
<path d="M97.5211 371.177C99.9054 371.177 101.838 369.348 101.838 367.091C101.838 364.835 99.9054 363.005 97.5211 363.005C95.1367 363.005 93.2039 364.835 93.2039 367.091C93.2039 369.348 95.1367 371.177 97.5211 371.177Z" fill="#E6E6E6"/>
<path d="M110.322 371.177C112.706 371.177 114.639 369.348 114.639 367.091C114.639 364.835 112.706 363.005 110.322 363.005C107.937 363.005 106.004 364.835 106.004 367.091C106.004 369.348 107.937 371.177 110.322 371.177Z" fill="#E6E6E6"/>
<path d="M158.18 40H59.8196C54.956 40 51 35.5145 51 30C51 24.4855 54.956 20 59.8196 20H158.18C163.044 20 167 24.4855 167 30C167 35.5145 163.044 40 158.18 40ZM59.8258 21.4123C55.6508 21.4123 52.2581 25.2661 52.2581 29.9929C52.2581 34.7197 55.657 38.5735 59.8258 38.5735H158.187C162.362 38.5735 165.754 34.7197 165.754 29.9929C165.754 25.2661 162.355 21.4123 158.187 21.4123H59.8258Z" fill="#CCCCCC"/>
<path d="M64.1688 33.7002C61.7838 33.7002 59.8441 31.8644 59.8441 29.6073C59.8441 27.3501 61.7838 25.5143 64.1688 25.5143C66.5539 25.5143 68.4936 27.3501 68.4936 29.6073C68.4936 31.8644 66.5539 33.7002 64.1688 33.7002ZM64.1688 26.6286C62.4329 26.6286 61.0215 27.9644 61.0215 29.6073C61.0215 31.2501 62.4329 32.5859 64.1688 32.5859C65.9048 32.5859 67.3162 31.2501 67.3162 29.6073C67.3162 27.9644 65.9048 26.6286 64.1688 26.6286Z" fill="#484662"/>
<path d="M72.3202 37.0502C72.1843 37.0502 72.0485 37.0074 71.9353 36.9145L66.4709 32.4787C66.2218 32.2787 66.1991 31.9287 66.4105 31.693C66.6218 31.4573 66.9916 31.4358 67.2407 31.6358L72.7051 36.0716C72.9542 36.2716 72.9768 36.6216 72.7655 36.8574C72.6523 36.9859 72.4862 37.0502 72.3202 37.0502Z" fill="#484662"/>
</svg>
