<svg width="432" height="265" viewBox="0 0 432 265" fill="none" xmlns="http://www.w3.org/2000/svg">
<path d="M179.747 35.8679C181.27 33.0288 183.703 30.6716 185.191 27.8171C186.68 24.9625 186.969 21.142 184.489 18.9571C182.384 17.1019 179.086 17.0759 176.568 15.7321C170.154 12.3086 170.161 1.43472 162.828 0.495164C159.262 0.0382749 156.035 2.5154 153.88 5.18622C151.724 7.85709 150.007 10.9737 147.018 12.8318C143.634 14.9353 139.259 15.0268 135.502 16.4879C128.298 19.2892 124.521 26.4924 121.363 33.1121C119.328 37.3766 117.247 41.9762 118.191 46.5558C116.139 47.7384 117.054 50.9191 119.102 52.1072C121.15 53.2952 123.722 53.2688 126.074 53.7834C131.017 54.865 135.064 58.5096 136.983 62.8655C138.478 66.2605 138.784 69.988 139.072 73.645C139.573 79.9906 140.074 86.3362 140.574 92.6817C140.797 95.5049 141.089 98.5051 142.944 100.754C144.8 103.004 148.817 103.946 150.902 101.877C152.895 99.9 151.998 96.7694 151.957 94.0645C151.917 91.3595 154.557 87.9913 157.046 89.4064L157.924 87.5615C163.609 85.6759 168.587 82.3126 172.263 77.8743C175.938 73.4359 178.155 68.1106 178.647 62.5356C179.283 53.5558 175.426 43.9275 179.747 35.8679Z" fill="#E6E6E6"/>
<path d="M185.125 93.7484C185.658 93.2353 186.037 92.5771 186.216 91.8517C186.395 91.1262 186.367 90.3636 186.135 89.6539C185.903 88.9441 185.477 88.3169 184.907 87.846C184.338 87.3751 183.648 87.0804 182.919 86.9964L182.928 87.3226C181.888 87.942 180.702 88.26 179.499 88.2421C178.299 88.2228 177.105 88.4158 175.97 88.8124C175.405 89.0218 174.916 89.4006 174.567 89.8989C174.218 90.3972 174.025 90.9918 174.013 91.6043C174.079 92.0738 174.255 92.5201 174.526 92.9054C174.797 93.2906 175.155 93.6034 175.57 93.8172C176.403 94.236 177.298 94.5131 178.219 94.6378C180.591 95.0931 183.368 95.4377 185.125 93.7484Z" fill="#E6E6E6"/>
<path d="M232.436 36.2607C233.521 35.5842 234.443 34.7098 235.142 33.6921C235.481 33.1772 235.642 32.5803 235.605 31.9798C235.567 31.3794 235.332 30.8034 234.931 30.3275C234.114 29.6778 233.063 29.3297 231.982 29.3508C229.046 29.1498 226.095 29.4688 223.291 30.2903C226.17 32.6292 229.05 34.968 231.93 37.3069L232.436 36.2607Z" fill="#E6E6E6"/>
<path d="M219.23 41.6079C220.32 42.6927 219.972 44.3756 219.664 45.8128C219.355 47.2501 219.316 49.046 220.687 49.8301C221.875 50.5097 223.542 49.9552 224.411 48.9573C225.188 47.893 225.661 46.6722 225.789 45.4032C226.216 43.559 226.409 41.6769 226.364 39.7933C226.313 37.8956 225.57 36.0659 224.252 34.5863C223.316 33.6241 222.069 32.9502 220.687 32.659C219.305 32.3678 217.857 32.474 216.545 32.9626L217.798 32.9069C216.887 33.9615 216.196 35.1566 215.76 36.4339C215.55 37.0756 215.536 37.7561 215.717 38.4047C215.898 39.0533 216.268 39.6464 216.789 40.1223C217.533 40.7055 218.568 40.9494 219.23 41.6079Z" fill="#E6E6E6"/>
<path d="M280.122 23.4783L280.268 22.8809C279.656 23.3502 279.185 24.084 278.932 24.9594C278.679 25.8347 278.661 26.7986 278.881 27.6895C279.351 27.1974 279.715 26.5477 279.933 25.8074C280.151 25.0672 280.216 24.2632 280.122 23.4783Z" fill="#E6E6E6"/>
<path d="M268.465 32.1805C269.567 31.5895 270.508 30.7621 271.212 29.7648C271.916 28.7674 272.363 27.6278 272.518 26.4374C272.637 25.6972 272.546 24.9402 272.255 24.244C272.106 23.8984 271.868 23.5931 271.564 23.3553C271.26 23.1174 270.898 22.9545 270.512 22.8809L270.04 23.5835C269.364 23.0326 268.228 23.5992 267.944 24.3998C267.76 25.2311 267.837 26.0949 268.163 26.8858C268.489 27.6815 268.474 28.5662 268.122 29.3517C267.742 29.8137 267.314 30.2388 266.846 30.621C266.617 30.8183 266.467 31.0848 266.423 31.3749C266.378 31.665 266.442 31.9607 266.602 32.2115C267.046 32.6914 267.876 32.49 268.465 32.1805Z" fill="#E6E6E6"/>
<path d="M262.783 28.1767C263.18 27.1851 263.367 26.0581 263.323 24.9253L262.309 24.4837C261.661 24.8486 261.087 25.4258 260.634 26.1662C260.497 26.3575 260.392 26.5886 260.326 26.8429C260.261 27.0973 260.237 27.3686 260.255 27.6375C260.274 27.9063 260.336 28.1661 260.435 28.3981C260.535 28.6302 260.67 28.8288 260.831 28.9797C260.993 29.1306 261.176 29.2302 261.368 29.2712C261.561 29.3122 261.757 29.2937 261.943 29.2169C262.13 29.1402 262.302 29.0071 262.447 28.8273C262.592 28.6475 262.707 28.4253 262.783 28.1767Z" fill="#E6E6E6"/>
<path d="M315.721 32.046C316.709 31.2495 317.697 30.453 318.685 29.6565C319.21 29.2864 319.657 28.8177 320.002 28.2768C320.238 27.7648 320.339 27.2016 320.298 26.6397C320.256 26.0779 320.072 25.5358 319.763 25.0639C319.216 24.2274 318.531 23.4893 317.737 22.8809C316.864 23.0867 316.098 23.6042 315.582 24.3355C315.067 25.0668 314.838 25.9611 314.94 26.8489C315.119 27.9782 315.831 29.1858 315.25 30.1717C315.023 30.5555 314.634 30.8169 314.373 31.1783C314.113 31.5397 314.028 32.1154 314.386 32.3812C314.784 32.6763 315.335 32.3568 315.721 32.046Z" fill="#E6E6E6"/>
<path d="M317.136 37.303C317.56 37.3238 317.985 37.2609 318.38 37.1186C318.775 36.9762 319.132 36.7578 319.427 36.4781C320.952 35.3351 322.286 33.9943 323.387 32.4982C320.82 33.242 318.253 33.9857 315.687 34.7294L316.487 35.5855C315.776 36.0099 316.303 37.1569 317.136 37.303Z" fill="#E6E6E6"/>
<path d="M323.465 41.0378C323.613 41.3828 323.881 41.6741 324.229 41.8671C324.576 42.0602 324.983 42.1444 325.388 42.1068C325.791 42.0579 326.177 41.9291 326.52 41.7294C326.862 41.5298 327.152 41.2642 327.37 40.9514C327.739 40.4555 327.956 39.8789 327.999 39.281C328.041 38.6831 327.907 38.0858 327.611 37.5508C327.315 37.0157 326.868 36.5624 326.315 36.2377C325.762 35.9131 325.124 35.7288 324.466 35.704L325.137 36.6371C325.308 38.2298 322.93 39.5133 323.465 41.0378Z" fill="#E6E6E6"/>
<path d="M369.103 57.6049C369.665 57.9565 370.347 58.1458 371.048 58.1444C371.749 58.143 372.43 57.951 372.989 57.5971C373.352 57.3371 373.647 57.017 373.856 56.6569C374.064 56.2968 374.182 55.9044 374.202 55.5044C374.221 55.1043 374.142 54.7052 373.969 54.3321C373.796 53.9589 373.533 53.6197 373.197 53.3357L372.136 53.8326C371.548 53.5154 370.836 53.402 370.15 53.5163C369.464 53.6306 368.858 53.9637 368.458 54.4454C368.101 54.9503 367.969 55.5457 368.087 56.1248C368.205 56.7038 368.565 57.2286 369.103 57.6049Z" fill="#E6E6E6"/>
<path d="M382.667 59.6489C383.222 59.5089 383.727 59.2475 384.133 58.8897C384.538 58.5318 384.832 58.0896 384.984 57.6052L382.767 57.3523C382.15 56.9479 381.432 56.6756 380.671 56.5576C380.29 56.508 379.9 56.5737 379.568 56.7437C379.235 56.9137 378.98 57.1777 378.845 57.4915C378.798 57.7584 378.831 58.0313 378.939 58.2843C379.048 58.5373 379.23 58.7619 379.467 58.9367C379.886 59.2832 380.4 59.5307 380.96 59.6554C381.52 59.7801 382.108 59.7779 382.667 59.6489Z" fill="#E6E6E6"/>
<path d="M372.665 64.2067C372.711 64.5976 372.878 64.9684 373.146 65.2757C373.415 65.5831 373.773 65.8143 374.18 65.9423C374.624 66.135 375.122 66.2012 375.608 66.1324C376.094 66.0636 376.546 65.8629 376.906 65.5564C377.065 65.3926 377.178 65.1966 377.238 64.9845C377.297 64.7725 377.3 64.5507 377.246 64.3373C377.193 64.124 377.085 63.9254 376.93 63.7581C376.776 63.5907 376.581 63.4594 376.36 63.375L374.388 63.0473C373.626 62.6868 372.652 63.4226 372.665 64.2067Z" fill="#E6E6E6"/>
<path d="M274.109 75.7762L272.569 74.1733C272.978 74.8241 273.503 75.3701 274.109 75.7762Z" fill="#E6E6E6"/>
<path d="M263.528 68.3753C264.353 72.051 268.479 75.0454 272.224 73.9409L272.422 74.1141C271.229 72.548 271.027 70.2307 271.306 68.2156C271.822 64.7624 273.237 61.4897 275.42 58.6996C277.602 55.9094 280.481 53.6916 283.793 52.2508C284.7 51.9791 285.511 51.4721 286.136 50.7858C286.67 50.0367 286.471 48.7523 285.551 48.5407C285.051 48.4859 284.547 48.5979 284.123 48.8578L277.163 52.1451C273.647 53.8054 270.061 55.5133 267.3 58.1809C264.538 60.8485 262.703 64.6996 263.528 68.3753Z" fill="#E6E6E6"/>
<path d="M153.431 190.627C146.998 186.348 139.952 182.927 132.498 180.463C127.917 178.95 122.994 177.795 118.221 178.655C115.603 179.158 113.15 180.227 111.061 181.777C108.972 183.326 107.305 185.312 106.197 187.572C105.13 189.849 104.628 192.319 104.728 194.801C104.829 197.282 105.53 199.711 106.779 201.906C108.98 205.739 112.792 208.791 114.066 212.97C114.926 215.788 114.519 218.788 114.105 221.692C113.26 227.625 112.415 233.558 111.57 239.491C110.8 244.892 110.051 250.514 111.891 255.687C113.732 260.861 118.985 265.421 124.82 264.872L125.976 264.791C122.116 262.353 121.035 257.304 122.184 253.101C123.333 248.898 126.25 245.334 129.098 241.898C137.549 231.702 146 221.506 154.452 211.31C157.871 207.185 161.488 202.086 159.664 197.163C158.628 194.364 156.021 192.35 153.431 190.627Z" fill="#E6E6E6"/>
<path d="M95.8542 165.525C95.0059 165.252 94.11 165.859 93.6113 166.566C93.2082 167.324 92.7346 168.047 92.1961 168.726C90.8914 170.003 88.5138 169.749 87.1066 168.574C85.6995 167.399 85.0898 165.582 84.8167 163.822C84.489 161.71 84.6305 159.353 86.0984 157.736C87.6096 156.071 90.0934 155.625 92.379 155.279C94.7399 154.922 97.3849 154.624 99.3191 155.958C100.537 156.799 101.248 158.155 102.376 159.102C103.505 160.048 105.512 160.407 106.362 159.226C106.584 158.808 106.696 158.344 106.689 157.876C106.682 157.407 106.556 156.947 106.321 156.535C105.843 155.713 105.556 154.805 105.478 153.869C105.535 152.571 106.633 151.54 107.756 150.798C108.879 150.056 110.147 149.416 110.884 148.321C111.79 146.975 111.694 145.24 112.256 143.734C113.617 140.089 118.473 138.467 119.887 134.84C120.228 134.078 120.266 133.223 119.995 132.436C119.403 130.991 117.802 131.275 117.704 129.509C117.61 127.82 119.094 126.164 120.601 125.458C122.68 124.486 125.103 124.564 127.419 124.505C129.735 124.446 132.231 124.154 133.93 122.659C134.481 122.12 134.905 121.477 135.175 120.772C135.446 120.067 135.556 119.316 135.5 118.568C135.444 117.819 135.222 117.091 134.848 116.429C134.475 115.768 133.959 115.189 133.334 114.73C132.067 113.9 130.466 113.611 129.233 112.735C127.698 111.644 126.972 109.827 125.776 108.404C124.782 107.32 123.644 106.363 122.39 105.557C121.364 104.834 120.338 104.111 119.313 103.388C117.458 102.082 115.528 100.741 113.272 100.276C111.015 99.8103 108.328 100.469 107.197 102.382C106.752 103.234 106.508 104.169 106.484 105.12C106.381 107.36 106.48 109.605 106.778 111.829C106.965 113.619 107.151 115.409 107.337 117.2C107.504 118.805 107.325 120.921 105.684 121.337C102.045 122.261 103.273 117.151 102.465 115.585C101.23 113.189 95.553 112.038 93.1261 111.039C91.6104 110.415 90.0108 109.727 89.0956 108.421C87.9566 106.796 88.1904 104.583 89.0836 102.825C89.9768 101.066 91.4322 99.6351 92.7543 98.14C94.1021 96.6159 95.3293 95 96.5551 93.3858C97.9768 91.5136 99.3985 89.6414 100.82 87.7692C102.644 85.3681 104.56 82.4376 103.525 79.6454C103.3 79.2719 102.965 78.9695 102.56 78.7762C102.156 78.583 101.7 78.5073 101.25 78.5588C100.801 78.6103 100.377 78.7866 100.032 79.0657C99.6878 79.3448 99.4376 79.7142 99.313 80.1277C98.8591 81.6351 100.07 83.5597 98.9116 84.6768C98.5148 84.9803 98.0182 85.1417 97.5087 85.1326C96.9992 85.1236 96.5093 84.9447 96.1247 84.6273C95.3744 83.9692 94.8029 83.1486 94.459 82.2353C93.0554 79.2733 91.688 76.2929 90.2473 73.3471C89.7918 72.4159 89.3165 70.8213 87.9362 70.9783C86.738 71.1146 86.0909 72.7728 86.1325 73.7355C86.1931 75.1362 87.0083 76.3878 87.6314 77.6586C88.2545 78.9295 88.6902 80.4556 88.0061 81.6979C87.1398 83.2708 84.946 83.6241 83.0777 83.5721C79.5561 83.4708 76.1055 82.6062 72.9897 81.0443C72.9083 82.6881 72.8269 84.3318 72.7455 85.9755C70.2656 84.9898 67.7858 84.0041 65.3059 83.0184C64.8243 82.8269 64.3426 82.6355 63.861 82.444C61.7691 81.6125 59.6746 80.7801 57.5211 80.1051C56.2986 79.7219 55.059 79.3901 53.8199 79.0584C53.0667 78.8568 52.3134 78.6552 51.5602 78.4535C50.0739 77.9534 48.4973 77.7398 46.923 77.8253C45.269 78.0226 43.7937 78.8662 42.264 79.4969C38.8511 80.9038 34.4368 79.4885 30.7795 79.4634C29.3288 77.4522 27.3702 75.8184 25.0829 74.7116C22.7956 73.6048 20.2525 73.0602 17.6864 73.1277C15.1202 73.1953 12.6129 73.8727 10.3936 75.0981C8.17433 76.3235 6.31401 78.0577 4.98278 80.1422C4.33976 81.1983 3.76713 82.2917 3.26825 83.4159C2.77201 84.472 2.27577 85.528 1.77952 86.5841C1.05154 88.1333 0.307509 89.7655 0.450596 91.4565C0.593683 93.1475 1.95877 94.875 3.74511 94.8597C-0.467234 96.6707 -1.34377 103.008 2.23321 105.79C3.22369 106.561 4.43828 107.065 5.3296 107.938C6.00327 108.598 6.45397 109.433 6.62384 110.338C6.79372 111.243 6.67503 112.175 6.28301 113.015C5.89098 113.856 5.2435 114.565 4.42368 115.054C3.60385 115.542 2.64907 115.787 1.68187 115.756C4.17742 116.672 6.92626 116.757 9.47938 115.998C12.0325 115.238 14.239 113.679 15.7384 111.575C17.2676 109.301 17.9323 106.46 20.0127 104.623C22.7678 102.189 27.3187 102.378 30.4963 104.292C33.674 106.205 35.6842 109.463 37.067 112.786C38.879 117.141 40.0387 122.117 43.8991 125.03C45.7658 126.438 48.1297 127.231 49.7795 128.865C52.129 131.192 52.5356 134.705 52.4826 137.929C52.4296 141.153 52.064 144.498 53.3006 147.501C54.5372 150.503 58.0825 152.973 61.2616 151.841C60.3508 154.407 60.3788 157.19 61.3408 159.739C62.3029 162.288 64.1427 164.454 66.5625 165.886C65.9833 162.475 65.4042 159.063 64.825 155.652C67.7117 156.424 69.5827 159.083 70.6633 161.739C71.7438 164.396 72.3148 167.269 73.881 169.697C76.3474 173.522 80.8137 175.17 85.3571 175.155C90.2653 175.139 92.1287 172.917 95.3632 169.644C96.013 169.086 96.5062 168.383 96.7983 167.598C96.9304 167.203 96.9075 166.775 96.7341 166.394C96.5606 166.013 96.2481 165.705 95.8542 165.525Z" fill="#E6E6E6"/>
<path d="M109.84 164.817C107.106 164.523 104.371 164.229 101.636 163.935C103.07 164.524 104.503 165.114 105.937 165.703C107.132 166.247 108.432 166.675 109.8 166.976C110.485 167.123 111.208 167.173 111.923 167.121C112.638 167.07 113.33 166.918 113.955 166.676L113.605 166.219C113.054 165.265 111.322 164.976 109.84 164.817Z" fill="#E6E6E6"/>
<path d="M107.778 179.377L107.796 179.33C107.641 179.061 107.414 178.846 107.143 178.713C106.872 178.581 106.569 178.537 106.274 178.587C105.687 178.698 105.086 178.708 104.495 178.618C104.12 178.463 103.785 178.216 103.519 177.897C103.253 177.579 103.063 177.198 102.965 176.786C102.711 175.982 102.636 175.122 102.348 174.332C102.139 173.707 101.771 173.154 101.283 172.735C100.796 172.316 100.208 172.047 99.5844 171.958C98.959 171.905 98.3389 172.113 97.8582 172.538C97.3776 172.963 97.075 173.57 97.016 174.228C97.0651 174.906 97.2695 175.561 97.6116 176.137C97.8868 176.694 98.162 177.252 98.4372 177.81C98.6691 178.309 98.9359 178.79 99.2354 179.248C99.7225 179.956 100.359 180.533 101.096 180.935C101.832 181.338 102.647 181.554 103.476 181.566C104.305 181.579 105.126 181.387 105.873 181.007C106.619 180.627 107.272 180.069 107.778 179.377Z" fill="#E6E6E6"/>
<path d="M92.5231 40.4278C94.5435 41.5977 97.0735 42.4041 98.0334 44.506L98.5872 44.6817C97.9831 45.419 97.3791 46.1563 96.775 46.8936C96.0285 47.8047 95.2435 48.8199 95.261 49.9893C95.285 51.5999 96.8623 52.8149 98.4559 53.1946C100.156 53.5383 101.926 53.2491 103.422 52.3831C104.918 51.5172 106.033 50.1362 106.55 48.5083C106.74 47.8294 106.818 47.1252 106.984 46.4404C107.469 44.8163 108.2 43.2734 109.153 41.8636C114.518 32.9981 119.883 24.1325 125.248 15.2669C125.916 14.1628 126.605 12.842 126.102 11.6562C125.834 11.1546 125.419 10.7434 124.911 10.4756C124.403 10.2077 123.824 10.0954 123.251 10.1532C122.106 10.2898 121.001 10.6547 120.005 11.2255C119.562 10.4618 118.937 9.81496 118.184 9.34065C117.431 8.86635 116.572 8.57869 115.681 8.5024C113.898 8.36731 112.106 8.52069 110.374 8.9564C106.462 9.53621 102.689 10.8092 99.2404 12.7133C97.3536 13.6502 95.2772 14.8073 94.7298 16.8132C94.0564 19.2807 96.2265 21.7954 98.725 22.5045C101.223 23.2137 103.89 22.6181 106.419 22.0212C106.705 23.2253 106.586 24.488 106.08 25.62C105.573 26.752 104.707 27.6923 103.611 28.3001C102.515 28.9079 101.248 29.1503 99.9995 28.9912C98.7512 28.832 97.5891 28.2797 96.6873 27.4171C94.8747 25.6835 93.9869 22.6739 91.4983 22.2265C89.0175 21.7805 87.0457 24.3794 86.4982 26.7976C85.9626 29.4021 86.2531 32.1052 87.3304 34.5425C88.4078 36.9797 90.2201 39.0339 92.5231 40.4278Z" fill="#E6E6E6"/>
<path d="M123.843 83.1338C122.624 79.8454 121.023 76.6989 119.07 73.7538C117.589 71.4251 115.761 69.3158 113.644 67.4926C111.71 65.8927 109.486 64.6452 107.082 63.8115C104.749 63.0036 102.152 62.6045 99.7939 63.3411C97.4355 64.0778 95.4291 66.1778 95.4769 68.553C95.5297 71.1793 97.9292 73.2332 100.43 74.3124C102.931 75.3915 105.712 75.8612 108.072 77.2008C109.676 78.1325 111.017 79.4273 111.976 80.9714C112.935 82.5155 113.483 84.2616 113.573 86.0563L114.167 86.9973C112.821 87.4244 111.566 88.079 110.46 88.93C109.913 89.3626 109.495 89.9259 109.247 90.5629C109 91.1999 108.933 91.8881 109.053 92.558C109.465 94.1484 111.16 95.061 112.694 95.7882C115.527 97.132 118.36 98.4757 121.193 99.8195C119.751 95.7002 124.473 91.867 124.735 87.5294C124.745 86.022 124.441 84.5278 123.843 83.1338Z" fill="#E6E6E6"/>
<path d="M52.3154 71.7393C53.9882 72.978 56.5601 72.3986 58.0926 71.0046C59.625 69.6105 60.3714 67.6267 61.0675 65.7193C60.8133 67.6073 60.8373 69.5198 61.139 71.4014C61.2961 72.3423 61.6563 73.2418 62.1969 74.043C62.7375 74.8443 63.4467 75.5298 64.2795 76.0562C65.0357 76.4517 65.8508 76.7346 66.6966 76.8953C70.6287 77.7486 74.738 77.4686 78.503 76.091L78.5368 74.8634C76.6454 75.0691 75.2141 73.0911 75.0893 71.2799C74.9644 69.4686 75.6538 67.6924 75.7144 65.8781C75.775 64.0639 74.858 61.9442 72.9847 61.6214C73.3126 62.2493 73.4322 62.9575 73.3275 63.6518C73.2228 64.346 72.899 64.9935 72.3989 65.5079C71.8989 66.0223 71.2464 66.3793 70.5283 66.5314C69.8102 66.6835 69.0605 66.6235 68.3791 66.3593C66.2108 65.5188 65.4231 62.9999 63.7474 61.4416C62.7121 60.5634 61.4276 59.9966 60.0554 59.8126C58.6832 59.6286 57.2846 59.8355 56.0353 60.4072C54.802 61.0073 53.72 61.8556 52.8641 62.8935C52.0082 63.9313 51.3988 65.134 51.078 66.4184C50.5692 68.2821 50.7202 70.5581 52.3154 71.7393Z" fill="#E6E6E6"/>
<path d="M106.171 59.1111L106.256 58.9857C105.748 57.6438 104.173 56.857 102.636 56.6573C101.087 56.5637 99.5312 56.6108 97.992 56.7977C96.4386 56.9815 94.8638 56.6642 93.5386 55.9004C92.4807 55.1768 91.878 54.0385 91.0322 53.1103C90.1865 52.1821 88.8177 51.4188 87.5891 51.8626C86.259 52.3431 85.9042 54.0487 86.5496 55.2161C87.31 56.3365 88.4571 57.193 89.8094 57.6501C94.9303 59.8005 100.692 60.315 106.171 59.1111Z" fill="#E6E6E6"/>
<path d="M88.7139 63.2339C88.2366 63.4718 87.913 63.826 87.8108 64.2225C87.7086 64.619 87.8358 65.027 88.1657 65.3612C88.4956 65.6954 89.0026 65.9298 89.5808 66.0154C90.1589 66.1011 90.7634 66.0313 91.2676 65.8207L91.7711 66.1588C92.4408 65.343 92.7169 64.2501 91.8606 63.5195C91.4799 63.2166 90.9482 63.02 90.3676 62.9673C89.7869 62.9146 89.1981 63.0095 88.7139 63.2339Z" fill="#E6E6E6"/>
<path d="M83.99 66.1719C83.9977 65.8312 83.8679 65.4967 83.6177 65.2124C83.3674 64.9281 83.0083 64.7074 82.5878 64.5792C82.3015 64.5423 82.0082 64.5494 81.7256 64.5998C81.443 64.6503 81.1769 64.7432 80.9434 64.8729C80.7099 65.0026 80.5138 65.1665 80.3669 65.3546C80.22 65.5428 80.1254 65.7513 80.0887 65.9676C80.0447 66.4083 80.1218 66.851 80.3153 67.2684C80.5088 67.6857 80.8146 68.0688 81.2136 68.3937C81.4457 68.6554 81.7491 68.8772 82.1037 69.0445C82.4584 69.2118 82.8562 69.3207 83.271 69.3641C84.1069 69.3847 84.9592 68.7285 84.6202 68.1546L83.3439 68.1359C83.7372 67.5216 83.9571 66.853 83.99 66.1719Z" fill="#E6E6E6"/>
<path d="M63.3501 56.6434C63.7227 56.9458 64.0954 57.2483 64.4681 57.5509C65.1136 58.1097 65.8109 58.6056 66.5505 59.0317C67.8441 59.7494 69.3655 59.9359 70.7938 59.5519C71.499 59.3505 72.1421 58.9746 72.6641 58.4588C73.186 57.9429 73.5699 57.3038 73.7803 56.6003C74.2259 54.9188 73.4991 53.1727 72.7878 51.5855C72.6254 51.1314 72.3576 50.7223 72.0063 50.3922C71.8264 50.2326 71.5968 50.1402 71.3566 50.1308C71.1163 50.1213 70.8803 50.1954 70.6883 50.3404C70.5492 50.514 70.4566 50.7203 70.4195 50.9398C70.3823 51.1593 70.4019 51.3847 70.4762 51.5945C70.6291 52.0127 70.699 52.4567 70.6819 52.9016C70.6111 53.3405 70.1511 53.7554 69.7459 53.5738L69.6814 55.0679C67.7465 54.0869 66.7232 51.4776 64.5698 51.2203C64.0865 51.1626 63.5967 51.2389 63.1537 51.4409C62.7108 51.6429 62.3317 51.9628 62.0579 52.3658C61.7841 52.7688 61.626 53.2394 61.601 53.7262C61.5759 54.2131 61.6849 54.6974 61.9159 55.1265C62.2897 55.7216 62.7771 56.2371 63.3501 56.6434Z" fill="#E6E6E6"/>
<path d="M58.8998 50.2604C59.3045 50.0198 59.6247 49.6868 59.8251 49.2984C60.0255 48.9099 60.0984 48.481 60.0356 48.0589C59.9872 47.8545 59.8874 47.6618 59.7434 47.4946C59.5993 47.3274 59.4146 47.1898 59.2023 47.0915C58.99 46.9932 58.7554 46.9367 58.5151 46.9261C58.2748 46.9154 58.0347 46.9507 57.8119 47.0296C57.3121 47.3537 56.9609 47.8211 56.8209 48.3486C56.3599 49.4767 55.8988 50.6048 55.4377 51.7329L56.2126 51.2438C57.1714 51.0647 58.0829 50.7311 58.8998 50.2604Z" fill="#E6E6E6"/>
<path d="M68.9426 41.5739C69.0913 41.3785 69.1971 41.1514 69.2526 40.9088C69.308 40.6662 69.3118 40.4138 69.2635 40.1695C69.2153 39.9252 69.1163 39.6948 68.9734 39.4947C68.8305 39.2946 68.6473 39.1295 68.4367 39.0112L67.3959 38.9097C67.1592 38.9722 66.9399 39.0916 66.7555 39.2583C66.5711 39.425 66.4268 39.6345 66.3342 39.8698C66.2415 40.1052 66.2031 40.3599 66.2219 40.6136C66.2408 40.8672 66.3165 41.1127 66.4428 41.3304C66.5692 41.548 66.7428 41.7318 66.9496 41.8669C67.1564 42.002 67.3908 42.0848 67.6339 42.1085C67.8769 42.1321 68.1219 42.0961 68.3492 42.0033C68.5765 41.9105 68.7797 41.7634 68.9426 41.5739Z" fill="#E6E6E6"/>
<path d="M79.1326 43.1807C80.1954 43.6114 81.5407 44.0219 82.4653 43.4033C82.7391 43.1934 82.9428 42.926 83.0558 42.6281C83.1688 42.3302 83.1871 42.0123 83.1089 41.7065C82.943 41.0965 82.6223 40.5243 82.1692 40.0298C80.7553 38.3102 78.9589 36.8408 76.8807 35.704L76.3669 36.2695C75.6492 37.8482 74.9562 39.6912 75.9573 41.1551C76.6322 42.1419 77.9181 42.6884 79.1326 43.1807Z" fill="#E6E6E6"/>
<path d="M81.765 50.1386L80.6513 50.4278C79.7043 51.6543 80.1151 53.2227 80.5556 54.616C80.8341 55.4967 81.4347 56.5805 82.5852 56.5404C83.7047 56.5015 84.2001 55.4315 84.4149 54.5647C84.7503 53.623 84.7866 52.6308 84.5208 51.6754C84.3691 51.2024 84.0081 50.7877 83.5028 50.506C82.9976 50.2242 82.3813 50.0939 81.765 50.1386Z" fill="#E6E6E6"/>
<path d="M67.9205 46.6228L68.6359 46.9242C68.8037 46.8991 68.9588 46.8169 69.0774 46.6903C69.1959 46.5636 69.2712 46.3996 69.2916 46.2236C69.3119 46.0477 69.2762 45.8696 69.19 45.717C69.1038 45.5644 68.9719 45.4458 68.8148 45.3796C68.6576 45.3134 68.484 45.3033 68.3207 45.3508C68.1575 45.3983 68.0138 45.5008 67.9119 45.6425C67.8101 45.7841 67.7557 45.9569 67.7572 46.1342C67.7588 46.3114 67.8162 46.4832 67.9205 46.6228Z" fill="#E6E6E6"/>
<path d="M100.518 94.7534C100.198 94.7599 99.8847 94.8363 99.6037 94.9762C99.3226 95.1161 99.0822 95.3155 98.9024 95.5578C98.7227 95.8 98.6089 96.078 98.5704 96.3687C98.532 96.6593 98.5701 96.9542 98.6815 97.2287C99.33 98.5064 101.563 98.5119 102.556 97.4348C102.81 97.1289 102.992 96.778 103.091 96.4044C103.189 96.0308 103.202 95.6426 103.129 95.2642C103.055 94.8858 102.896 94.5255 102.663 94.206C102.429 93.8865 102.126 93.6148 101.772 93.4079L100.518 94.7534Z" fill="#E6E6E6"/>
<path d="M133.637 125.5C133.428 125.583 133.232 125.728 133.061 125.926C132.89 126.124 132.747 126.37 132.641 126.652C132.535 126.933 132.469 127.243 132.444 127.563C132.42 127.884 132.44 128.208 132.502 128.517L133.996 128.671C134.502 128.293 135.008 127.915 135.514 127.537C135.484 127.218 135.411 126.911 135.299 126.635C135.187 126.358 135.04 126.118 134.865 125.928C134.69 125.738 134.491 125.603 134.28 125.529C134.069 125.456 133.851 125.446 133.637 125.5Z" fill="#E6E6E6"/>
<path d="M126.132 127.987C125.673 128.326 125.304 128.782 125.06 129.311C124.817 129.839 124.707 130.424 124.741 131.009C124.793 131.593 125.023 132.145 125.396 132.584C125.77 133.023 126.268 133.327 126.818 133.452C127.374 133.543 127.943 133.411 128.408 133.082C128.874 132.753 129.202 132.253 129.327 131.682C129.598 129.954 127.813 128.688 127.171 127.069L126.132 127.987Z" fill="#E6E6E6"/>
<path d="M197.787 115.721C198.001 117.054 196.585 118.222 196.532 119.567C196.47 121.162 198.517 122.403 200.39 122.247C201.319 122.11 202.199 121.792 202.959 121.319C203.719 120.845 204.339 120.228 204.771 119.516L204.812 119.367C203.899 118.492 202.987 117.618 202.075 116.743C200.955 115.669 199.768 114.447 199.812 113.013C199.833 112.307 200.162 111.622 200.143 110.915C200.099 110.407 199.966 109.907 199.746 109.432C199.499 108.807 199.163 108.102 198.427 107.891C197.505 107.627 196.575 108.32 196.135 109.056C195.739 109.735 195.547 110.487 195.575 111.244C195.603 112.001 195.85 112.74 196.295 113.397C196.828 114.164 197.646 114.839 197.787 115.721Z" fill="#E6E6E6"/>
<path d="M189.732 120.482C189.913 120.582 190.113 120.641 190.318 120.654C190.523 120.668 190.728 120.635 190.92 120.56C191.656 120.431 192.364 120.167 193.009 119.781C193.33 119.583 193.593 119.302 193.773 118.966C193.952 118.629 194.041 118.25 194.031 117.867C193.92 117.385 193.671 116.947 193.317 116.61C192.963 116.273 192.52 116.051 192.043 115.973C191.712 115.853 191.357 115.819 191.011 115.874C190.664 115.928 190.335 116.069 190.054 116.284C189.438 116.877 189.512 117.883 189.632 118.74L189.503 118.964C189.387 119.493 189.313 120.151 189.732 120.482Z" fill="#E6E6E6"/>
<path d="M431.182 89.132C428.86 86.7251 427.438 85.3374 425.971 82.354C425.173 80.7086 423.961 79.2775 422.443 78.1886C420.925 77.0996 419.148 76.3867 417.271 76.1134C412.453 75.3552 407.53 76.5558 402.653 76.3152C394.842 75.9298 387.799 71.9279 380.319 69.7451C376.131 68.6242 371.866 67.784 367.555 67.2305C365.071 66.8552 362.587 66.48 360.103 66.1048C351.961 64.8748 343.768 63.6413 335.526 63.8046C333.15 63.8517 329.839 63.1694 330.029 60.9061C330.266 58.0951 335.56 58.4642 336.579 55.8172C337.209 54.1798 335.701 52.4606 334.047 51.7202C332.394 50.9798 330.485 50.7572 328.984 49.7631C327.483 48.7691 326.661 46.4647 328.04 45.3213C324.217 47.1934 320.394 49.0656 316.571 50.9378C313.392 52.4943 309.841 54.5193 309.28 57.8889C307.364 58.3724 305.688 59.4846 304.546 61.0306C302.395 61.0413 300.705 63.0135 300.35 65.0396C299.996 67.0657 300.64 69.1163 301.278 71.0783C300.498 69.6511 299.669 68.1693 298.294 67.238C296.919 66.3067 294.826 66.1293 293.654 67.2863C292.451 68.4735 292.733 70.4653 293.584 71.9037C294.435 73.3421 295.742 74.5031 296.545 75.9665C299.052 80.537 294.508 86.9717 289.133 86.4626C289.493 81.743 289.854 77.0235 290.214 72.304C290.443 70.8523 290.315 69.3697 289.841 67.9733C289.255 66.6223 287.753 65.5126 286.259 65.8317C283.572 66.4053 283.802 70.1647 284.919 72.568C286.037 74.9713 287.151 78.3134 284.87 79.7852C283.396 80.7357 281.399 80.1487 279.808 79.39C278.218 78.6314 276.516 77.6964 274.778 78.0509C273.039 78.4053 271.946 80.9441 273.482 81.7989C270.934 81.3761 268.387 80.9532 265.839 80.5303C265.713 81.2466 265.431 81.9297 265.011 82.5354C264.591 83.1411 264.043 83.6559 263.402 84.0466C262.761 84.4373 262.041 84.6952 261.289 84.8036C260.537 84.9119 259.77 84.8685 259.037 84.6759C258.787 83.6858 258.537 82.6958 258.286 81.7057C257.914 81.6066 257.541 81.5075 257.168 81.4083C258.338 81.7196 256.507 86.4336 254.866 90.0346C252.66 89.7875 249.435 89.7398 249.067 89.1359C247.305 86.2437 247.514 79.3545 244.453 77.7273C242.918 76.9113 241.344 76.1677 239.731 75.4966C238.883 75.1113 237.988 74.8305 237.066 74.6609C235.186 74.3779 233.291 74.9349 231.477 75.4852C229.333 76.1353 227.14 76.81 225.365 78.1296C223.85 79.3853 222.551 80.8611 221.515 82.5028C218.011 87.4568 214.507 92.4107 211.003 97.3647C209.959 98.6877 209.138 100.158 208.568 101.723C208.3 102.501 208.211 103.326 208.306 104.14C208.402 104.954 208.681 105.739 209.123 106.441C209.589 107.129 210.284 107.647 211.096 107.912C211.908 108.177 212.789 108.173 213.599 107.902C214.614 107.482 215.632 106.53 216.638 106.969C217.4 107.302 217.591 108.259 217.511 109.056C217.317 109.837 217.302 110.648 217.466 111.434C217.924 112.675 219.687 113.106 220.944 112.57C222.167 111.932 223.083 110.867 223.5 109.598C224.711 106.63 224.588 103.346 224.889 100.173C225.191 97.001 226.099 93.6077 228.717 91.6351C229.501 91.0447 230.653 90.619 231.459 91.1806C231.761 91.4428 231.97 91.7887 232.057 92.1698C232.143 92.5509 232.103 92.9482 231.941 93.3064C231.604 94.0152 231.164 94.6752 230.635 95.2672C229.74 96.4695 229.114 97.8348 228.796 99.2781C228.477 100.721 228.473 102.212 228.784 103.657L229.319 103.973C231.36 103.467 234.093 104.373 236.804 105.242C234.836 105.801 233.103 106.939 231.853 108.494C228.72 112.693 226.452 116.667 220.254 116.617C218.784 116.606 217.326 116.328 215.856 116.325C214.371 116.237 212.909 116.702 211.777 117.622C210.662 118.665 210.317 120.253 209.364 121.432C208.11 122.983 206.014 123.614 204.099 124.318C202.7 124.833 201.226 125.527 200.583 126.821C200.179 127.882 200.086 129.028 200.313 130.136C200.529 132.095 200.911 134.323 202.65 135.38C203.301 135.705 204.013 135.902 204.744 135.961C205.475 136.02 206.212 135.94 206.91 135.725C208.72 135.304 210.49 134.512 212.348 134.63C215.267 134.816 217.67 137.492 217.699 140.286C217.714 141.7 217.282 143.322 218.263 144.381C219.185 145.376 221.014 145.198 221.969 144.232C222.413 143.718 222.719 143.108 222.859 142.456C223 141.803 222.97 141.127 222.774 140.488C222.369 139.214 221.745 138.013 220.928 136.935C221.899 136.694 222.928 136.783 223.838 137.185C224.749 137.587 225.486 138.278 225.923 139.141C226.572 140.516 226.362 142.103 226.569 143.599C226.776 145.094 227.729 146.757 229.305 146.843C229.821 146.856 230.325 146.698 230.731 146.393C231.137 146.089 231.418 145.659 231.527 145.177C231.543 144.418 231.5 143.659 231.397 142.907C231.451 142.166 231.799 141.472 232.371 140.969C232.943 140.466 233.695 140.19 234.472 140.2C233.993 141.046 233.837 142.026 234.031 142.97C234.225 143.915 234.757 144.766 235.536 145.376C236.736 146.263 238.322 146.461 239.817 146.709C241.311 146.957 242.906 147.349 243.87 148.468C245.477 150.331 243.511 151.17 243.205 152.747C242.829 154.684 244.523 157.545 245.174 159.398C248.163 163.393 251.153 167.388 254.143 171.383C254.81 172.355 255.597 173.246 256.487 174.038C259.438 176.459 264.303 176.22 267.134 173.671C268.506 172.345 269.397 170.633 269.676 168.788C269.955 166.942 269.607 165.06 268.684 163.417C266.935 160.376 263.469 158.493 261.758 155.432C264.606 157.684 268.103 159.058 271.786 159.372C278.303 160.637 284.494 163.117 290.006 166.67C290.265 172.171 292.474 177.424 296.271 181.567C296.954 176.872 299.245 172.526 302.787 169.207C305.09 167.061 308.237 165.331 311.397 165.908C314.557 166.485 316.954 170.335 315.043 172.807C316.644 172.92 318.246 173.034 319.847 173.148C320.565 174.854 321.284 176.559 322.002 178.265C322.13 177.907 322.374 177.597 322.7 177.381C323.026 177.165 323.415 177.054 323.812 177.065C325.311 177.281 326.362 178.614 327.788 179.106C330.477 180.033 333.35 177.464 333.698 174.754C334.046 172.045 332.696 169.428 331.385 167.002C334.281 167.515 337.271 167.209 339.989 166.123C342.706 165.037 345.033 163.218 346.685 160.888C348.337 158.559 349.241 155.819 349.288 153.006C349.335 150.192 348.523 147.427 346.95 145.048C350.066 141.921 353.734 139.342 357.785 137.428C361.535 135.658 365.636 134.444 368.912 131.962C372.189 129.48 374.487 125.17 372.911 121.47C371.798 118.856 369.005 117.082 368.169 114.376C366.96 110.458 370.635 106.405 374.787 105.426C378.938 104.447 383.274 105.65 387.364 106.844C386.736 102.824 391.613 99.0555 395.597 100.483C397.266 99.8376 398.935 99.1922 400.603 98.5468C398.669 102.62 394.478 105.212 391.396 108.579C388.314 111.947 386.479 117.431 389.698 120.679C394.312 116.684 398.927 112.689 403.541 108.694C408.368 104.515 413.195 100.336 418.021 96.157C417.791 95.5103 417.56 94.8636 417.33 94.2169C421.896 92.5601 426.814 91.1896 431.182 89.132Z" fill="#E6E6E6"/>
<path d="M191.233 142.827C191.049 143.06 190.95 143.337 190.952 143.621C190.954 143.904 191.055 144.18 191.242 144.412C191.487 144.594 191.798 144.696 192.119 144.7C192.441 144.704 192.754 144.609 193.005 144.433C193.495 144.065 193.878 143.6 194.121 143.077C194.359 143.479 194.731 143.808 195.189 144.018C195.646 144.228 196.167 144.31 196.679 144.252C197.702 144.116 198.671 143.762 199.5 143.219C200.158 142.881 200.739 142.439 201.214 141.916C201.448 141.652 201.609 141.344 201.684 141.016C201.759 140.688 201.745 140.349 201.644 140.026C201.398 139.531 201.015 139.098 200.531 138.765C199.323 137.787 198.115 136.808 196.907 135.829L196.497 135.721C196.284 135.522 196.027 135.363 195.743 135.254C195.458 135.144 195.15 135.086 194.839 135.083C194.528 135.08 194.22 135.133 193.932 135.237C193.645 135.341 193.384 135.495 193.166 135.69C192.416 136.427 192.413 137.527 192.528 138.51C192.642 139.492 192.821 140.539 192.322 141.425C192.036 141.932 191.552 142.334 191.233 142.827Z" fill="#E6E6E6"/>
<path d="M261.785 179.091C257.05 178.083 252.715 175.799 249.293 172.51C245.871 169.221 243.505 165.064 242.475 160.53C242.026 158.391 241.823 156.053 240.334 154.399C238.893 152.797 236.539 152.219 234.33 152.22C232.121 152.22 229.943 152.706 227.738 152.837C223.883 153.067 219.798 152.094 217.042 149.506C215.736 148.281 214.748 146.725 213.223 145.759C211.174 144.46 208.458 144.461 206.123 145.197C203.522 146.017 201.441 148.259 198.597 147.951C195.64 147.63 192.212 146.63 191.053 150.354C190.719 151.426 190.833 152.602 190.41 153.645C189.758 155.253 188.029 156.159 186.661 157.282C183.905 159.544 182.44 162.98 181.947 166.421C181.453 169.862 181.835 173.356 182.217 176.81C182.423 178.673 182.694 180.677 184.033 182.046C185.898 183.953 189.028 183.879 191.749 183.664C194.91 183.414 198.072 183.165 201.234 182.915C202.938 182.781 204.88 182.723 206.093 183.876C206.82 184.566 207.128 185.565 207.767 186.331C208.341 186.983 209.129 187.429 210.003 187.598C210.876 187.766 211.783 187.646 212.577 187.259C211.935 188.354 211.586 189.583 211.56 190.838C211.534 192.093 211.832 193.335 212.428 194.453C213.023 195.572 213.898 196.533 214.975 197.251C216.051 197.969 217.296 198.422 218.6 198.571L218.843 198.718C216.819 202.032 214.719 205.754 215.558 209.508C216.278 212.726 219.065 215.306 219.521 218.568C219.939 221.561 218.306 224.622 219.029 227.562C219.76 230.539 222.904 232.614 226.093 232.835C229.283 233.057 232.416 231.704 234.886 229.763C237.357 227.821 239.267 225.32 241.149 222.848C242.311 221.322 243.503 219.733 243.902 217.884C244.327 215.917 243.835 213.736 244.835 211.969C245.989 209.932 248.728 209.168 250.111 207.265C251.901 204.801 250.846 201.446 251.242 198.469C252.221 191.104 262.008 186.513 261.785 179.091Z" fill="#E6E6E6"/>
<path d="M259.768 204.461C259.497 205.617 258.355 206.378 257.266 206.96C256.178 207.542 254.981 208.13 254.426 209.191C253.858 210.279 254.117 211.574 254.415 212.755C255.033 215.21 255.761 217.637 256.599 220.036C258.223 217.127 259.641 214.118 260.844 211.03C261.353 209.881 261.668 208.662 261.776 207.419C261.825 206.797 261.737 206.172 261.517 205.585C261.296 204.997 260.948 204.46 260.495 204.007L259.768 204.461Z" fill="#E6E6E6"/>
<path d="M326.32 191.876C325.046 190.308 323.771 188.739 322.497 187.17C321.625 186.097 320.631 184.952 319.311 184.773L318.767 185.143C319.872 187.948 320.977 190.754 322.082 193.559C322.473 194.841 323.162 195.995 324.084 196.917C325.073 197.745 326.677 197.905 327.502 196.892C327.768 196.512 327.936 196.065 327.989 195.594C328.041 195.124 327.977 194.647 327.802 194.211C327.442 193.345 326.941 192.554 326.32 191.876Z" fill="#E6E6E6"/>
<path d="M339.507 194.279C340.03 194.105 340.509 193.827 340.913 193.464C341.318 193.102 341.639 192.662 341.857 192.172C342.285 191.192 342.568 190.159 342.697 189.104C342.933 187.729 343.17 186.354 343.406 184.979L343.097 184.903C342.797 184.764 342.454 184.735 342.134 184.821C341.813 184.906 341.535 185.101 341.352 185.369C341.004 185.915 340.74 186.507 340.57 187.126C340.482 187.435 340.323 187.721 340.105 187.963C339.886 188.205 339.613 188.396 339.307 188.523C338.198 188.845 337.147 187.714 335.989 187.758C335.521 187.815 335.087 188.023 334.758 188.348C334.429 188.673 334.224 189.096 334.176 189.548C334.109 190.459 334.378 191.364 334.934 192.104C335.922 193.579 337.755 194.765 339.507 194.279Z" fill="#E6E6E6"/>
<path d="M346.749 197.596L351.105 189.581C349.341 190.475 347.988 191.71 347.214 193.134C346.44 194.558 346.279 196.109 346.749 197.596Z" fill="#E6E6E6"/>
<path d="M362.936 191.184L362.315 191.207C362.038 191.693 361.891 192.229 361.885 192.773C361.879 193.318 362.015 193.856 362.282 194.346C362.826 195.324 363.618 196.177 364.596 196.839C366.111 197.947 367.841 198.803 369.7 199.364C372.428 200.069 375.248 200.454 378.088 200.509C379.712 200.603 381.336 200.697 382.96 200.792C383.733 200.836 384.734 200.749 384.949 200.09C385.126 199.545 384.602 199.033 384.113 198.667C379.817 195.463 374.609 193.369 369.059 192.613C366.954 192.329 364.721 192.212 362.936 191.184Z" fill="#E6E6E6"/>
<path d="M380.922 210.798C379.743 209.681 378.564 208.564 377.385 207.446C376.238 206.36 374.52 205.208 373.206 206.096C372.451 206.606 372.218 207.6 371.578 208.243C371.188 208.584 370.717 208.825 370.208 208.944C369.698 209.062 369.167 209.055 368.661 208.922C367.654 208.645 366.702 208.204 365.846 207.618L362.92 205.844C361.911 205.231 360.901 204.619 359.891 204.007L357.613 206.171C357.712 205.106 356.259 204.414 355.254 204.835C354.776 205.097 354.364 205.461 354.05 205.9C353.736 206.339 353.527 206.841 353.439 207.37C353.271 208.427 352.979 209.461 352.568 210.452C351.411 212.616 348.603 213.257 346.132 213.619C343.661 213.982 340.862 214.492 339.539 216.563C338.438 218.289 338.768 220.504 339.136 222.505L340.528 230.077C340.594 230.995 340.971 231.865 341.599 232.55C342.822 233.605 344.717 232.963 346.21 232.32C349.331 230.853 352.68 229.904 356.121 229.513C359.591 229.134 363.083 230.008 365.94 231.971C367.71 233.288 369.061 235.112 370.937 236.282C372.229 237.042 373.682 237.503 375.185 237.631C376.687 237.759 378.2 237.551 379.607 237.021C382.428 235.924 384.763 233.889 386.201 231.276C387.478 228.971 388.119 226.381 388.06 223.761C388.002 221.141 387.246 218.582 385.868 216.333C384.461 214.295 382.799 212.435 380.922 210.798Z" fill="#E6E6E6"/>
<path d="M377.707 241.437C377.455 241.799 377.308 242.246 377.287 242.714C377.266 243.182 377.372 243.646 377.589 244.038C378.045 244.813 378.741 245.344 379.525 245.515C380.302 245.68 381.094 245.723 381.88 245.643L381.904 244.947C381.695 243.725 381.219 242.589 380.525 241.652C379.766 240.797 378.425 240.535 377.707 241.437Z" fill="#E6E6E6"/>
<path d="M407.567 242.622L407.165 242.477C406.208 243.908 405.252 245.34 404.295 246.771C403.78 247.541 403.243 248.466 403.557 249.337C403.928 250.366 405.303 250.668 406.37 250.396C407.185 250.177 407.92 249.731 408.488 249.111C409.057 248.492 409.436 247.725 409.58 246.899C409.698 246.069 409.571 245.223 409.213 244.464C408.856 243.705 408.284 243.065 407.567 242.622Z" fill="#E6E6E6"/>
<path d="M415.86 237.075L412.93 234.462C412.891 235.675 412.852 236.887 412.813 238.099L412.703 238.101C413.379 238.766 414.016 239.478 414.613 240.232C415.299 240.886 416.449 241.186 417.035 240.419C417.211 240.145 417.31 239.819 417.322 239.481C417.333 239.144 417.255 238.81 417.099 238.522C416.776 237.952 416.355 237.46 415.86 237.075Z" fill="#E6E6E6"/>
<path d="M365.174 145.926C363.941 145.89 362.577 145.821 361.622 146.546C361.307 146.807 361.032 147.106 360.802 147.435L360.465 147.873C359.961 148.486 359.522 149.143 359.153 149.835C358.96 150.159 358.844 150.518 358.813 150.887C358.783 151.256 358.837 151.627 358.974 151.975C359.053 152.142 359.17 152.29 359.318 152.409C359.465 152.529 359.639 152.616 359.827 152.667C360.015 152.717 360.212 152.728 360.405 152.699C360.598 152.671 360.782 152.603 360.944 152.501C361.471 152.047 361.348 151.224 361.746 150.669C361.922 150.459 362.147 150.291 362.404 150.177C362.662 150.062 362.944 150.005 363.23 150.009C363.799 150.023 364.365 150.082 364.923 150.187C366.469 150.384 368.042 150.166 369.458 149.558C370.875 148.95 372.074 147.978 372.915 146.756C373.756 145.535 374.203 144.116 374.204 142.665C374.206 141.215 373.76 139.795 372.921 138.573L372.822 138.291C371.968 138.261 371.13 138.51 370.454 138.995C369.777 139.479 369.305 140.169 369.12 140.945C368.844 142.28 369.428 143.831 368.558 144.924C367.823 145.845 366.407 145.962 365.174 145.926Z" fill="#E6E6E6"/>
<path d="M375.218 131.896L375.029 131.877C373.916 132.108 372.849 132.559 371.874 133.211C371.555 133.379 371.3 133.673 371.156 134.038C371.113 134.231 371.114 134.434 371.158 134.627C371.202 134.82 371.287 134.998 371.407 135.145C371.648 135.434 371.931 135.676 372.243 135.859C372.708 136.211 373.222 136.472 373.763 136.63C374.035 136.706 374.319 136.704 374.59 136.625C374.861 136.546 375.11 136.391 375.315 136.175C375.507 135.875 375.64 135.531 375.703 135.167C375.765 134.803 375.757 134.428 375.679 134.067C375.59 133.328 375.436 132.6 375.218 131.896Z" fill="#E6E6E6"/>
<path d="M357.975 145.749C358.229 145.397 358.409 145.008 358.508 144.602C358.607 144.286 358.706 143.971 358.805 143.655L357.747 143.097C357.241 143.326 356.775 143.614 356.361 143.954C356.155 144.125 355.993 144.331 355.883 144.559C355.774 144.788 355.72 145.033 355.726 145.28C355.74 145.527 355.851 145.763 356.039 145.949C356.228 146.134 356.484 146.259 356.765 146.303C357.004 146.309 357.242 146.261 357.454 146.164C357.666 146.067 357.846 145.924 357.975 145.749Z" fill="#E6E6E6"/>
<path d="M229.783 43.8001C229.296 44.0764 229.434 44.7444 229.631 45.2349C229.858 45.798 230.085 46.3611 230.311 46.9242L230.628 45.8311C230.907 45.4072 231.03 44.9134 230.979 44.4214C230.869 43.941 230.24 43.5405 229.783 43.8001Z" fill="#E6E6E6"/>
<path d="M69.2971 143.097C71.8486 143.097 73.9169 141.303 73.9169 139.09C73.9169 136.877 71.8486 135.083 69.2971 135.083C66.7457 135.083 64.6773 136.877 64.6773 139.09C64.6773 141.303 66.7457 143.097 69.2971 143.097Z" fill="#1C1C1C"/>
<path d="M81.6166 122.26C84.1681 122.26 86.2364 120.107 86.2364 117.451C86.2364 114.796 84.1681 112.643 81.6166 112.643C79.0652 112.643 76.9968 114.796 76.9968 117.451C76.9968 120.107 79.0652 122.26 81.6166 122.26Z" fill="#1C1C1C"/>
<path d="M218.671 104.628C221.222 104.628 223.291 102.834 223.291 100.621C223.291 98.4078 221.222 96.6137 218.671 96.6137C216.119 96.6137 214.051 98.4078 214.051 100.621C214.051 102.834 216.119 104.628 218.671 104.628Z" fill="#1C1C1C"/>
<path d="M291.62 180.014C294.171 180.014 296.24 178.22 296.24 176.007C296.24 173.794 294.171 172 291.62 172C289.068 172 287 173.794 287 176.007C287 178.22 289.068 180.014 291.62 180.014Z" fill="#00CB82"/>
</svg>
